<?xml version="1.0" encoding="UTF-8"?>
<!-- Generator: visioncortex VTracer 0.6.12 -->
<svg version="1.1" xmlns="http://www.w3.org/2000/svg" width="158" height="31" viewBox="0 0 316 62">
<path d="M0 0 C0.736 0.001 1.472 0.002 2.23 0.004 C11.889 0.022 21.536 0.159 31.188 0.562 C31.666 0.582 31.666 0.582 34.085 0.681 C40.495 0.995 40.495 0.995 41.625 2.125 C43.191 2.254 43.191 2.254 45.188 2.258 C45.545 2.258 45.545 2.258 47.352 2.262 C48.102 2.258 48.852 2.254 49.625 2.25 C50 2.252 50 2.252 51.898 2.262 C52.613 2.26 53.327 2.259 54.062 2.258 C54.721 2.257 55.38 2.256 56.059 2.254 C57.625 2.125 57.625 2.125 58.625 1.125 C60.102 1.026 61.583 0.994 63.062 0.992 C63.957 0.991 64.852 0.99 65.773 0.988 C66.714 0.992 67.655 0.996 68.625 1 C69.096 0.998 69.096 0.998 71.477 0.988 C71.924 0.989 71.924 0.989 74.188 0.992 C75.014 0.993 75.84 0.994 76.691 0.996 C78.625 1.125 78.625 1.125 79.625 2.125 C81.611 2.271 83.603 2.352 85.594 2.406 C85.892 2.415 85.892 2.415 87.398 2.462 C89.307 2.521 91.216 2.574 93.125 2.625 C95.636 2.692 98.146 2.766 100.656 2.844 C101.776 2.874 102.895 2.904 104.049 2.936 C106.625 3.125 106.625 3.125 107.625 4.125 C110.129 4.336 112.616 4.501 115.125 4.625 C122.49 4.99 122.49 4.99 123.625 6.125 C125.349 6.39 127.075 6.651 128.805 6.875 C130.212 7.068 131.61 7.332 133 7.625 C136.23 8.24 139.461 8.54 142.734 8.844 C144.625 9.125 144.625 9.125 145.625 10.125 C147.796 10.335 149.949 10.5 152.125 10.625 C158.49 10.99 158.49 10.99 159.625 12.125 C160.739 12.249 161.853 12.373 163 12.5 C166.253 12.923 167.474 13.583 169.625 16.125 C171.276 17.151 172.945 18.148 174.625 19.125 C179.109 21.892 183.499 24.8 186.625 29.125 C187.25 32.25 187.25 32.25 186.625 35.125 C182.934 39.91 177.67 42.223 172.176 44.379 C170.625 45.125 170.625 45.125 168.625 47.125 C165.374 48.41 162.265 49.233 158.812 49.688 C155.625 50.125 155.625 50.125 154.625 51.125 C152.307 51.446 149.987 51.637 147.656 51.844 C145.625 52.125 145.625 52.125 144.625 53.125 C141.415 53.395 138.213 53.571 134.996 53.73 C129.725 54.025 129.725 54.025 128.625 55.125 C126.481 55.272 124.365 55.36 122.219 55.406 C121.579 55.425 120.939 55.443 120.28 55.462 C117.532 55.541 114.784 55.609 112.036 55.677 C110.034 55.729 108.033 55.786 106.031 55.844 C105.405 55.857 104.779 55.871 104.134 55.885 C99.738 56.012 99.738 56.012 98.625 57.125 C95.785 57.449 92.944 57.638 90.094 57.844 C87.625 58.125 87.625 58.125 86.625 59.125 C83.785 59.449 80.944 59.638 78.094 59.844 C75.625 60.125 75.625 60.125 74.625 61.125 C72.72 61.286 70.809 61.377 68.898 61.441 C68.597 61.452 68.597 61.452 67.074 61.505 C65.049 61.572 63.025 61.631 61 61.688 C60.297 61.708 59.593 61.729 58.869 61.751 C34.167 62.469 9.451 62.396 -15.25 61.688 C-15.609 61.678 -15.609 61.678 -17.428 61.628 C-19.429 61.572 -21.429 61.508 -23.43 61.441 C-24.559 61.405 -25.688 61.368 -26.851 61.33 C-29.375 61.125 -29.375 61.125 -30.375 60.125 C-31.923 59.98 -33.477 59.898 -35.031 59.844 C-35.971 59.806 -36.911 59.769 -37.879 59.73 C-38.868 59.696 -39.856 59.661 -40.875 59.625 C-42.823 59.556 -44.771 59.484 -46.719 59.406 C-47.587 59.376 -48.455 59.346 -49.35 59.314 C-51.375 59.125 -51.375 59.125 -52.375 58.125 C-53.746 57.966 -55.123 57.848 -56.5 57.75 C-60.968 57.304 -64.361 56.039 -68.375 54.125 C-73.253 52.13 -77.87 51.716 -83.082 51.371 C-85.375 51.125 -85.375 51.125 -86.375 50.125 C-87.87 49.918 -89.372 49.758 -90.875 49.625 C-95.264 49.236 -95.264 49.236 -96.375 48.125 C-98.122 47.967 -99.873 47.848 -101.625 47.75 C-106.055 47.39 -108.712 46.741 -112.375 44.125 C-113.303 43.857 -114.231 43.589 -115.188 43.312 C-120.551 41.315 -125.644 37.499 -129.375 33.125 C-129.125 30.688 -129.125 30.688 -128.375 28.125 C-128.21 27.444 -128.045 26.764 -127.875 26.062 C-127.71 25.423 -127.545 24.784 -127.375 24.125 C-127.272 23.424 -127.169 22.723 -127.062 22 C-126.375 20.125 -126.375 20.125 -124.5 19.062 C-123.799 18.753 -123.097 18.444 -122.375 18.125 C-121.942 17.609 -121.509 17.094 -121.062 16.562 C-118.444 14.332 -115.759 14.501 -112.375 14.125 C-112.045 13.795 -111.715 13.465 -111.375 13.125 C-108.535 12.801 -105.694 12.612 -102.844 12.406 C-100.375 12.125 -100.375 12.125 -99.375 11.125 C-97.579 10.808 -95.781 10.614 -93.969 10.406 C-92.375 10.125 -92.375 10.125 -91.375 9.125 C-89.579 8.808 -87.781 8.614 -85.969 8.406 C-84.375 8.125 -84.375 8.125 -83.375 7.125 C-81.973 6.981 -80.565 6.898 -79.156 6.844 C-78.732 6.825 -78.732 6.825 -76.582 6.73 C-75.68 6.695 -75.68 6.695 -71.168 6.52 C-70.743 6.501 -70.743 6.501 -68.594 6.406 C-68.202 6.391 -68.202 6.391 -66.217 6.314 C-64.375 6.125 -64.375 6.125 -63.375 5.125 C-61.973 4.981 -60.565 4.898 -59.156 4.844 C-58.307 4.806 -57.457 4.769 -56.582 4.73 C-55.68 4.695 -55.68 4.695 -51.168 4.52 C-50.318 4.482 -49.469 4.445 -48.594 4.406 C-48.202 4.391 -48.202 4.391 -46.217 4.314 C-44.375 4.125 -44.375 4.125 -43.375 3.125 C-40.595 2.856 -37.823 2.679 -35.035 2.52 C-30.475 2.225 -30.475 2.225 -29.375 1.125 C-19.651 -0.157 -9.787 -0.035 0 0 Z " fill="#4386EA" transform="translate(129.375,-0.125)"/>
<path d="M0 0 C0.963 0.165 1.926 0.33 2.918 0.5 C7.392 1.14 11.803 1.074 16.312 1 C17.913 0.975 19.513 0.953 21.113 0.938 C21.812 0.926 22.511 0.914 23.232 0.902 C25 1 25 1 27 2 C27 1.34 27 0.68 27 0 C31.62 0 36.24 0 41 0 C41 0.33 41 0.66 41 1 C38.36 1.33 35.72 1.66 33 2 C33.639 1.99 33.639 1.99 36.875 1.938 C40.75 1.875 40.75 1.875 43 3 C45.331 3.308 47.662 3.509 50.004 3.719 C52 4 52 4 53 5 C54.347 5.231 55.704 5.412 57.062 5.562 C57.796 5.646 58.529 5.73 59.285 5.816 C59.851 5.877 60.417 5.938 61 6 C61 5.34 61 4.68 61 4 C62.98 3.67 64.96 3.34 67 3 C67 2.34 67 1.68 67 1 C67.66 1.33 67.66 1.33 71 3 C71 3.66 71 4.32 71 5 C71.66 5 72.32 5 73 5 C73 5.99 73 6.98 73 8 C73.99 7.67 74.98 7.34 76 7 C76.33 7.99 76.66 8.98 77 10 C77.66 10 78.32 10 79 10 C79.66 8.68 80.32 7.36 81 6 C81.99 6.33 82.98 6.66 84 7 C84 7.66 84 8.32 84 9 C84.701 8.814 85.403 8.629 86.125 8.438 C89.339 7.948 91.836 8.338 95 9 C95 9.66 95 10.32 95 11 C95.66 11 96.32 11 97 11 C97 10.34 97 9.68 97 9 C103.625 7.875 103.625 7.875 107 9 C107 9.66 107 10.32 107 11 C108.32 10.34 109.64 9.68 111 9 C111.33 9.99 111.33 9.99 113 15 C116.413 15.698 119.827 16.391 123.242 17.081 C124.965 17.43 126.688 17.783 128.41 18.135 C134.265 19.316 140.06 20.367 146 21 C146 22.32 146 23.64 146 25 C144.752 25.339 143.501 25.671 142.25 26 C141.554 26.186 140.858 26.371 140.141 26.562 C138.029 26.994 136.148 27.077 134 27 C134 27.66 134 28.32 134 29 C129.147 31.426 124.192 31.624 118.875 32.062 C117.08 32.217 115.286 32.374 113.492 32.535 C112.702 32.601 111.911 32.667 111.097 32.735 C109 33 109 33 106 34 C104.512 34.087 103.02 34.118 101.529 34.114 C101.078 34.113 101.078 34.113 98.799 34.113 C97.83 34.108 96.861 34.103 95.863 34.098 C95.366 34.097 95.366 34.097 92.849 34.093 C89.67 34.088 86.491 34.075 83.312 34.062 C81.158 34.057 79.004 34.053 76.85 34.049 C71.566 34.038 66.283 34.021 61 34 C61 34.66 61 35.32 61 36 C42.104 41.122 21.336 38.888 2 38 C2 38.66 2 39.32 2 40 C-0.375 40.625 -0.375 40.625 -3 41 C-3.66 40.34 -4.32 39.68 -5 39 C-6.594 38.84 -6.594 38.84 -8.5 38.938 C-11.526 39.018 -14.372 38.879 -17.375 38.5 C-22.29 37.944 -27.126 37.999 -32.062 38.062 C-38.19 38.127 -44.169 38.177 -50 36 C-50.33 35.67 -50.66 35.34 -51 35 C-53.283 34.9 -55.53 34.861 -57.812 34.875 C-58.442 34.871 -59.072 34.867 -59.721 34.863 C-62.962 34.87 -65.9 35.016 -69 36 C-69 35.34 -69 34.68 -69 34 C-69.5 34.006 -69.5 34.006 -72.027 34.035 C-73.331 34.045 -74.634 34.054 -75.938 34.062 C-76.267 34.067 -76.267 34.067 -77.936 34.088 C-79.624 34.097 -81.312 34.052 -83 34 C-83.33 33.67 -83.66 33.34 -84 33 C-85.474 32.792 -86.955 32.633 -88.438 32.5 C-92.781 32.11 -92.781 32.11 -95 31 C-96.996 30.641 -98.995 30.305 -101 30 C-101 29.34 -101 28.68 -101 28 C-102.32 28 -103.64 28 -105 28 C-105 27.34 -105 26.68 -105 26 C-110.28 25.67 -115.56 25.34 -121 25 C-121 23.68 -121 22.36 -121 21 C-117.354 19.561 -114.165 18.859 -110.25 18.562 C-106.685 18.271 -103.633 17.652 -100.25 16.5 C-95.384 14.904 -90.726 14.521 -85.646 14.291 C-81.17 14.085 -81.17 14.085 -79 13 C-77.543 12.873 -76.085 12.772 -74.625 12.688 C-70.325 12.282 -68.952 11.163 -66 8 C-63.25 8.25 -63.25 8.25 -61 9 C-61 8.01 -61 7.02 -61 6 C-58.03 6 -55.06 6 -52 6 C-52 5.34 -52 4.68 -52 4 C-49.69 4 -47.38 4 -45 4 C-45 4.66 -45 5.32 -45 6 C-42.625 5.688 -42.625 5.688 -40 5 C-39.859 4.747 -39.859 4.747 -39.145 3.469 C-38 2 -38 2 -35.723 1.707 C-34.845 1.742 -33.967 1.777 -33.062 1.812 C-32.187 1.84 -31.312 1.867 -30.41 1.895 C-29.615 1.929 -28.819 1.964 -28 2 C-27.01 2 -26.02 2 -25 2 C-23.667 2 -22.333 2 -21 2 C-21 2.66 -21 3.32 -21 4 C-20.443 4.021 -20.443 4.021 -17.625 4.125 C-17.312 4.137 -17.312 4.137 -15.727 4.195 C-14 4 -14 4 -12 2 C-9.18 1.586 -9.18 1.586 -5.875 1.375 C-4.779 1.3 -3.684 1.225 -2.555 1.148 C-1.712 1.099 -0.869 1.05 0 1 C0 0.67 0 0.34 0 0 Z " fill="#357BF9" transform="translate(149,8)"/>
<path d="M0 0 C0.736 0.001 1.472 0.002 2.23 0.004 C11.889 0.022 21.536 0.159 31.188 0.562 C31.666 0.582 31.666 0.582 34.085 0.681 C40.495 0.995 40.495 0.995 41.625 2.125 C43.191 2.254 43.191 2.254 45.188 2.258 C45.545 2.258 45.545 2.258 47.352 2.262 C48.102 2.258 48.852 2.254 49.625 2.25 C50 2.252 50 2.252 51.898 2.262 C52.613 2.26 53.327 2.259 54.062 2.258 C54.721 2.257 55.38 2.256 56.059 2.254 C57.625 2.125 57.625 2.125 58.625 1.125 C60.102 1.026 61.583 0.994 63.062 0.992 C63.957 0.991 64.852 0.99 65.773 0.988 C66.714 0.992 67.655 0.996 68.625 1 C69.096 0.998 69.096 0.998 71.477 0.988 C71.924 0.989 71.924 0.989 74.188 0.992 C75.014 0.993 75.84 0.994 76.691 0.996 C78.625 1.125 78.625 1.125 79.625 2.125 C80.805 2.354 81.995 2.536 83.188 2.688 C84.322 2.832 85.456 2.976 86.625 3.125 C86.305 3.28 86.305 3.28 84.688 4.062 C82.625 5.125 82.625 5.125 81.625 6.125 C79.959 6.166 78.291 6.168 76.625 6.125 C76.625 6.785 76.625 7.445 76.625 8.125 C78.605 8.125 80.585 8.125 82.625 8.125 C82.625 7.465 82.625 6.805 82.625 6.125 C83.285 6.125 83.945 6.125 84.625 6.125 C84.625 7.445 84.625 8.765 84.625 10.125 C84.955 10.29 84.955 10.29 86.625 11.125 C84.645 11.455 82.665 11.785 80.625 12.125 C80.625 12.785 80.625 13.445 80.625 14.125 C79.313 14.152 78 14.171 76.688 14.188 C75.957 14.199 75.226 14.211 74.473 14.223 C72.625 14.125 72.625 14.125 71.625 13.125 C70.193 12.916 68.754 12.757 67.312 12.625 C64.98 12.409 62.798 12.169 60.527 11.59 C58.625 11.125 58.625 11.125 55.5 11.188 C52.625 11.125 52.625 11.125 50.625 9.125 C48.5 8.5 48.5 8.5 46.625 8.125 C46.625 8.785 46.625 9.445 46.625 10.125 C43.417 10.154 40.208 10.172 37 10.188 C36.548 10.192 36.548 10.192 34.262 10.213 C29.585 10.23 25.206 10.091 20.625 9.125 C20.625 9.455 20.625 9.785 20.625 10.125 C20.173 10.149 20.173 10.149 17.887 10.273 C16.695 10.348 15.504 10.424 14.312 10.5 C13.718 10.531 13.123 10.562 12.51 10.594 C9.247 10.812 7.247 11.207 4.625 13.125 C1.437 12.75 1.437 12.75 -1.375 12.125 C-1.375 11.465 -1.375 10.805 -1.375 10.125 C-3.685 10.785 -5.995 11.445 -8.375 12.125 C-8.375 11.465 -8.375 10.805 -8.375 10.125 C-10.001 10.212 -11.626 10.32 -13.25 10.438 C-13.702 10.467 -13.702 10.467 -15.992 10.613 C-18.375 11.125 -18.375 11.125 -19.531 12.656 C-19.81 13.141 -20.088 13.626 -20.375 14.125 C-23 14.312 -23 14.312 -25.375 14.125 C-25.375 13.465 -25.375 12.805 -25.375 12.125 C-27.685 12.125 -29.995 12.125 -32.375 12.125 C-32.375 12.785 -32.375 13.445 -32.375 14.125 C-35.345 14.125 -38.315 14.125 -41.375 14.125 C-41.375 15.115 -41.375 16.105 -41.375 17.125 C-43.685 17.125 -45.995 17.125 -48.375 17.125 C-48.601 17.771 -48.826 18.417 -49.059 19.082 C-50.375 21.125 -50.375 21.125 -52.723 21.699 C-53.619 21.737 -54.514 21.774 -55.438 21.812 C-60.307 22.057 -60.307 22.057 -61.375 23.125 C-63.711 23.286 -66.036 23.404 -68.375 23.5 C-73.724 23.777 -78.22 24.46 -83.238 26.43 C-86.569 27.514 -89.926 27.689 -93.406 27.914 C-95.375 28.125 -95.375 28.125 -96.375 29.125 C-98.041 29.166 -99.709 29.168 -101.375 29.125 C-101.375 30.445 -101.375 31.765 -101.375 33.125 C-96.095 33.455 -90.815 33.785 -85.375 34.125 C-85.375 34.785 -85.375 35.445 -85.375 36.125 C-84.055 36.125 -82.735 36.125 -81.375 36.125 C-81.375 36.785 -81.375 37.445 -81.375 38.125 C-86.234 39.282 -88.878 38.945 -93.375 37.125 C-93.375 38.115 -93.375 39.105 -93.375 40.125 C-92.282 40.063 -91.189 40.001 -90.062 39.938 C-86.631 39.931 -86.631 39.931 -84.562 41.5 C-84.171 42.036 -83.779 42.572 -83.375 43.125 C-82.715 43.785 -82.055 44.445 -81.375 45.125 C-81.829 45.393 -82.282 45.661 -82.75 45.938 C-84.458 47.186 -85.259 48.354 -86.375 50.125 C-87.855 49.985 -89.334 49.837 -90.812 49.688 C-91.636 49.606 -92.46 49.525 -93.309 49.441 C-95.375 49.125 -95.375 49.125 -96.375 48.125 C-98.122 47.967 -99.873 47.848 -101.625 47.75 C-106.055 47.39 -108.712 46.741 -112.375 44.125 C-113.303 43.857 -114.231 43.589 -115.188 43.312 C-120.551 41.315 -125.644 37.499 -129.375 33.125 C-129.125 30.688 -129.125 30.688 -128.375 28.125 C-128.21 27.444 -128.045 26.764 -127.875 26.062 C-127.71 25.423 -127.545 24.784 -127.375 24.125 C-127.272 23.424 -127.169 22.723 -127.062 22 C-126.375 20.125 -126.375 20.125 -124.5 19.062 C-123.799 18.753 -123.097 18.444 -122.375 18.125 C-121.942 17.609 -121.509 17.094 -121.062 16.562 C-118.444 14.332 -115.759 14.501 -112.375 14.125 C-112.045 13.795 -111.715 13.465 -111.375 13.125 C-108.535 12.801 -105.694 12.612 -102.844 12.406 C-100.375 12.125 -100.375 12.125 -99.375 11.125 C-97.579 10.808 -95.781 10.614 -93.969 10.406 C-92.375 10.125 -92.375 10.125 -91.375 9.125 C-89.579 8.808 -87.781 8.614 -85.969 8.406 C-84.375 8.125 -84.375 8.125 -83.375 7.125 C-81.973 6.981 -80.565 6.898 -79.156 6.844 C-78.732 6.825 -78.732 6.825 -76.582 6.73 C-75.68 6.695 -75.68 6.695 -71.168 6.52 C-70.743 6.501 -70.743 6.501 -68.594 6.406 C-68.202 6.391 -68.202 6.391 -66.217 6.314 C-64.375 6.125 -64.375 6.125 -63.375 5.125 C-61.973 4.981 -60.565 4.898 -59.156 4.844 C-58.307 4.806 -57.457 4.769 -56.582 4.73 C-55.68 4.695 -55.68 4.695 -51.168 4.52 C-50.318 4.482 -49.469 4.445 -48.594 4.406 C-48.202 4.391 -48.202 4.391 -46.217 4.314 C-44.375 4.125 -44.375 4.125 -43.375 3.125 C-40.595 2.856 -37.823 2.679 -35.035 2.52 C-30.475 2.225 -30.475 2.225 -29.375 1.125 C-19.651 -0.157 -9.787 -0.035 0 0 Z " fill="#4F78F5" transform="translate(129.375,-0.125)"/>
<path d="M0 0 C0.165 0.165 0.165 0.165 1 1 C3.504 1.211 5.991 1.376 8.5 1.5 C15.865 1.865 15.865 1.865 17 3 C18.724 3.265 20.45 3.526 22.18 3.75 C23.587 3.943 24.985 4.207 26.375 4.5 C29.605 5.115 32.836 5.415 36.109 5.719 C38 6 38 6 39 7 C41.171 7.21 43.324 7.375 45.5 7.5 C51.865 7.865 51.865 7.865 53 9 C54.114 9.124 55.228 9.248 56.375 9.375 C59.628 9.798 60.849 10.458 63 13 C64.651 14.026 66.32 15.023 68 16 C72.484 18.767 76.874 21.675 80 26 C80.625 29.125 80.625 29.125 80 32 C76.309 36.785 71.045 39.098 65.551 41.254 C64 42 64 42 62 44 C58.749 45.285 55.64 46.108 52.188 46.562 C49 47 49 47 48 48 C45.682 48.321 43.362 48.512 41.031 48.719 C39 49 39 49 38 50 C34.79 50.27 31.588 50.446 28.371 50.605 C23.1 50.9 23.1 50.9 22 52 C19.856 52.147 17.74 52.235 15.594 52.281 C14.954 52.3 14.314 52.318 13.655 52.337 C10.907 52.416 8.159 52.484 5.411 52.552 C3.409 52.604 1.408 52.661 -0.594 52.719 C-1.22 52.732 -1.846 52.746 -2.491 52.76 C-6.887 52.887 -6.887 52.887 -8 54 C-10.84 54.324 -13.681 54.513 -16.531 54.719 C-19 55 -19 55 -20 56 C-21.853 56.072 -23.708 56.084 -25.562 56.062 C-26.574 56.053 -27.586 56.044 -28.629 56.035 C-29.02 56.029 -29.02 56.029 -31 56 C-31 55.34 -31 54.68 -31 54 C-31.66 53.34 -32.32 52.68 -33 52 C-32.34 51.01 -31.68 50.02 -31 49 C-31.66 47.68 -32.32 46.36 -33 45 C-32.085 44.939 -31.17 44.879 -30.227 44.816 C-29.026 44.732 -27.826 44.647 -26.625 44.562 C-26.022 44.523 -25.418 44.484 -24.797 44.443 C-20.227 44.113 -20.227 44.113 -18 43 C-15.882 42.914 -13.797 42.884 -11.68 42.902 C-11.37 42.903 -11.37 42.903 -9.805 42.907 C-7.828 42.912 -5.852 42.925 -3.875 42.938 C-2.535 42.943 -1.195 42.947 0.145 42.951 C3.43 42.962 6.715 42.979 10 43 C10 42.34 10 41.68 10 41 C19.82 36.888 29.399 36.051 39.906 35.206 C42.313 34.969 44.646 34.556 47 34 C47 33.34 47 32.68 47 32 C48.98 31.505 48.98 31.505 59 29 C59 28.34 59 27.68 59 27 C58.112 26.859 57.224 26.718 56.31 26.573 C53.006 26.046 49.704 25.511 46.402 24.974 C44.975 24.742 43.547 24.514 42.119 24.287 C40.063 23.961 38.008 23.626 35.953 23.289 C35.318 23.19 34.682 23.091 34.027 22.989 C30.726 22.439 27.804 21.885 25 20 C24.25 17.375 24.25 17.375 24 15 C22.68 15.33 21.36 15.66 20 16 C20 15.34 20 14.68 20 14 C19.34 14 18.68 14 18 14 C17.67 14.66 17.34 15.32 17 16 C16.835 15.67 16.835 15.67 16 14 C14.02 14 12.04 14 10 14 C10 14.66 10 15.32 10 16 C9.34 16 8.68 16 8 16 C8 15.34 8 14.68 8 14 C4.37 14 0.74 14 -3 14 C-3.33 13.34 -3.66 12.68 -4 12 C-7 13 -7 13 -8 15 C-8.66 15 -9.32 15 -10 15 C-10.66 14.34 -11.32 13.68 -12 13 C-12.66 13 -13.32 13 -14 13 C-14 12.01 -14 11.02 -14 10 C-14.66 10 -15.32 10 -16 10 C-16.289 9.505 -16.577 9.01 -16.875 8.5 C-17.246 8.005 -17.618 7.51 -18 7 C-20.125 6.812 -20.125 6.812 -22 7 C-22 5.68 -22 4.36 -22 3 C-22.66 3 -23.32 3 -24 3 C-24 3.66 -24 4.32 -24 5 C-25.98 5 -27.96 5 -30 5 C-30 4.34 -30 3.68 -30 3 C-20.719 -1.103 -9.963 -0.896 0 0 Z " fill="#4566E3" transform="translate(236,3)"/>
<path d="M0 0 C0 -0.33 0 -0.66 0 -1 C4.976 -0.59 9.857 -0.07 14.75 0.938 C21.452 2.236 28.231 2.702 35.032 3.215 C39.941 3.611 44.531 4.247 49.282 5.55 C51.508 6.133 53.712 6.411 56 6.625 C56.763 6.7 57.526 6.775 58.312 6.852 C58.869 6.901 59.426 6.95 60 7 C60 7.99 60 8.98 60 10 C58.68 10 57.36 10 56 10 C56 10.99 56 11.98 56 13 C54.129 13.536 52.253 14.053 50.375 14.562 C49.331 14.853 48.287 15.143 47.211 15.441 C43.755 16.043 41.43 15.6 38 15 C35.415 15.101 32.874 15.463 30.312 15.812 C20.969 16.979 11.607 17.666 2.216 18.302 C1.662 18.34 1.662 18.34 -1.141 18.535 C-2.126 18.601 -3.111 18.667 -4.126 18.735 C-7 19 -7 19 -9.762 19.496 C-14.06 20.165 -18.33 20.347 -22.672 20.535 C-23.144 20.557 -23.144 20.557 -25.532 20.666 C-28.604 20.803 -31.677 20.934 -34.75 21.062 C-35.794 21.107 -36.837 21.152 -37.913 21.197 C-51.88 21.785 -65.832 22.195 -79.812 22.188 C-80.173 22.188 -80.173 22.188 -82 22.19 C-93.623 22.188 -93.623 22.188 -96 21 C-96 20.34 -96 19.68 -96 19 C-96.69 19.01 -97.381 19.021 -98.092 19.032 C-101.249 19.074 -104.406 19.099 -107.562 19.125 C-108.106 19.133 -108.106 19.133 -110.854 19.176 C-115.913 19.207 -120.306 19.152 -125.093 17.503 C-130.803 15.996 -137.056 16.157 -142.928 15.789 C-153.054 15.086 -153.054 15.086 -158 13 C-158 12.67 -158 12.34 -158 12 C-157.657 11.998 -157.657 11.998 -155.921 11.987 C-139.061 11.883 -122.2 11.774 -105.34 11.661 C-97.185 11.606 -89.031 11.553 -80.877 11.503 C-73.751 11.459 -66.626 11.413 -59.501 11.363 C-55.744 11.337 -51.988 11.312 -48.231 11.291 C-31.131 11.193 -14.05 10.928 3.042 10.348 C13.051 10.009 23.047 9.874 33.062 9.938 C34.55 9.943 36.038 9.947 37.525 9.951 C41.017 9.962 44.508 9.979 48 10 C48 9.34 48 8.68 48 8 C37.44 7.835 37.44 7.835 -16 7 C-16 6.34 -16 5.68 -16 5 C-42.07 5 -68.14 5 -95 5 C-95 4.67 -95 4.34 -95 4 C-113.229 3.709 -131.212 3.454 -149.308 5.926 C-158.251 7.132 -166.992 7.314 -176 7 C-176 6.67 -176 6.34 -176 6 C-171.412 4.949 -166.855 4.688 -162.172 4.482 C-159.434 4.325 -157.184 4.078 -154.648 3 C-150.705 1.511 -146.809 1.57 -142.625 1.438 C-140.971 1.377 -139.318 1.313 -137.664 1.246 C-136.937 1.222 -136.209 1.198 -135.459 1.174 C-133 1 -133 1 -129.755 0.503 C-126.313 0.004 -122.934 -0.162 -119.453 -0.221 C-119.144 -0.227 -119.144 -0.227 -117.581 -0.256 C-115.543 -0.292 -113.504 -0.322 -111.465 -0.352 C-110.006 -0.375 -108.548 -0.399 -107.09 -0.423 C-103.181 -0.485 -99.272 -0.54 -95.363 -0.592 C-92.938 -0.625 -90.513 -0.659 -88.088 -0.694 C-58.705 -1.106 -29.373 -0.839 0 0 Z " fill="#1D73F9" transform="translate(226,22)"/>
<path d="M0 0 C0 0.33 0 0.66 0 1 C12.705 1.165 12.705 1.165 77 2 C77 2.66 77 3.32 77 4 C77.32 3.999 77.32 3.999 78.938 3.993 C85.012 3.973 91.087 3.958 97.161 3.948 C100.283 3.943 103.404 3.936 106.526 3.925 C109.548 3.914 112.569 3.908 115.591 3.905 C117.285 3.902 118.979 3.895 120.673 3.887 C127.504 3.886 134.21 4.254 141 5 C141 5.66 141 6.32 141 7 C93.375 8.787 45.802 9.321 -1.854 9.257 C-9.154 9.248 -16.454 9.255 -23.754 9.264 C-30.93 9.273 -38.106 9.275 -45.282 9.27 C-49.509 9.266 -53.736 9.266 -57.963 9.273 C-61.888 9.278 -65.813 9.274 -69.738 9.263 C-71.163 9.26 -72.588 9.261 -74.014 9.265 C-82.549 9.29 -90.612 8.715 -99 7 C-99 6.34 -99 5.68 -99 5 C-96.28 3.64 -93.697 3.824 -90.719 3.789 C-89.403 3.763 -88.087 3.736 -86.771 3.709 C-86.076 3.695 -85.381 3.682 -84.665 3.668 C-73.818 3.451 -63.194 2.95 -52.438 1.438 C-35.072 -0.952 -17.487 -0.263 0 0 Z " fill="#0B8CFC" transform="translate(133,25)"/>
<path d="M0 0 C1.301 0.007 2.602 0.019 3.902 0.035 C4.566 0.04 5.229 0.044 5.912 0.049 C7.555 0.061 9.197 0.079 10.84 0.098 C10.84 1.088 10.84 2.078 10.84 3.098 C11.17 3.263 11.17 3.263 12.84 4.098 C11.84 5.098 11.84 5.098 9.477 5.16 C7.518 5.119 5.56 5.077 3.602 5.035 C0.84 5.098 0.84 5.098 -1.076 5.595 C-3.226 6.113 -5.063 6.212 -7.27 6.195 C-8.024 6.192 -8.778 6.189 -9.555 6.186 C-10.332 6.177 -11.109 6.169 -11.91 6.16 C-12.703 6.156 -13.496 6.151 -14.312 6.146 C-16.262 6.135 -18.211 6.118 -20.16 6.098 C-19.995 6.593 -19.995 6.593 -19.16 9.098 C-19.82 9.098 -20.48 9.098 -21.16 9.098 C-21.82 10.418 -22.48 11.738 -23.16 13.098 C-24.15 13.098 -25.14 13.098 -26.16 13.098 C-25.995 13.593 -25.995 13.593 -25.16 16.098 C-25.598 18.285 -25.598 18.285 -26.16 20.098 C-26.806 20.214 -27.451 20.33 -28.116 20.449 C-31.048 20.976 -33.979 21.506 -36.91 22.035 C-37.926 22.218 -38.942 22.4 -39.988 22.588 C-40.478 22.677 -40.478 22.677 -42.957 23.125 C-43.858 23.287 -44.758 23.45 -45.687 23.617 C-47.869 24.041 -50.01 24.534 -52.16 25.098 C-52.16 26.088 -52.16 27.078 -52.16 28.098 C-49.685 28.428 -49.685 28.428 -37.16 30.098 C-36.995 30.593 -36.995 30.593 -36.16 33.098 C-35.17 33.098 -34.18 33.098 -33.16 33.098 C-33.16 33.758 -33.16 34.418 -33.16 35.098 C-32.067 35.036 -30.974 34.974 -29.848 34.91 C-26.416 34.903 -26.416 34.903 -24.348 36.473 C-23.956 37.009 -23.564 37.545 -23.16 38.098 C-22.5 38.758 -21.84 39.418 -21.16 40.098 C-21.614 40.366 -22.068 40.634 -22.535 40.91 C-24.243 42.159 -25.044 43.326 -26.16 45.098 C-27.64 44.957 -29.119 44.81 -30.598 44.66 C-31.421 44.579 -32.245 44.498 -33.094 44.414 C-35.16 44.098 -35.16 44.098 -36.16 43.098 C-37.907 42.939 -39.658 42.821 -41.41 42.723 C-45.841 42.363 -48.497 41.714 -52.16 39.098 C-53.088 38.83 -54.016 38.561 -54.973 38.285 C-60.336 36.287 -65.429 32.472 -69.16 28.098 C-68.91 25.66 -68.91 25.66 -68.16 23.098 C-67.995 22.417 -67.83 21.736 -67.66 21.035 C-67.495 20.396 -67.33 19.756 -67.16 19.098 C-67.057 18.396 -66.954 17.695 -66.848 16.973 C-66.16 15.098 -66.16 15.098 -64.285 14.035 C-63.935 13.88 -63.935 13.88 -62.16 13.098 C-61.727 12.582 -61.294 12.066 -60.848 11.535 C-58.229 9.304 -55.544 9.474 -52.16 9.098 C-51.83 8.768 -51.5 8.438 -51.16 8.098 C-48.32 7.774 -45.479 7.585 -42.629 7.379 C-40.16 7.098 -40.16 7.098 -39.16 6.098 C-37.364 5.781 -35.566 5.587 -33.754 5.379 C-32.16 5.098 -32.16 5.098 -31.16 4.098 C-29.364 3.781 -27.566 3.587 -25.754 3.379 C-24.16 3.098 -24.16 3.098 -23.16 2.098 C-21.758 1.953 -20.35 1.871 -18.941 1.816 C-18.517 1.798 -18.517 1.798 -16.367 1.703 C-15.465 1.668 -15.465 1.668 -10.953 1.492 C-10.528 1.473 -10.528 1.473 -8.379 1.379 C-7.987 1.364 -7.987 1.364 -6.002 1.287 C-3.148 0.994 -3.365 0.104 0 0 Z " fill="#5C6BEF" transform="translate(69.16015625,4.90234375)"/>
<path d="M0 0 C6.542 -0.37 6.542 -0.37 8.625 1.312 C8.852 1.591 8.852 1.591 10 3 C11.651 4.026 13.32 5.023 15 6 C19.484 8.767 23.874 11.675 27 16 C27.625 19.125 27.625 19.125 27 22 C23.309 26.785 18.045 29.098 12.551 31.254 C11 32 11 32 9 34 C5.749 35.285 2.64 36.108 -0.812 36.562 C-4 37 -4 37 -5 38 C-7.318 38.321 -9.638 38.512 -11.969 38.719 C-14 39 -14 39 -15 40 C-18.21 40.27 -21.412 40.446 -24.629 40.605 C-29.9 40.9 -29.9 40.9 -31 42 C-33.144 42.147 -35.26 42.235 -37.406 42.281 C-38.046 42.3 -38.686 42.318 -39.345 42.337 C-42.093 42.416 -44.841 42.484 -47.589 42.552 C-49.591 42.604 -51.592 42.661 -53.594 42.719 C-54.22 42.732 -54.846 42.746 -55.491 42.76 C-59.887 42.887 -59.887 42.887 -61 44 C-63.84 44.324 -66.681 44.513 -69.531 44.719 C-72 45 -72 45 -73 46 C-74.853 46.072 -76.708 46.084 -78.562 46.062 C-79.574 46.053 -80.586 46.044 -81.629 46.035 C-82.02 46.029 -82.02 46.029 -84 46 C-84 45.34 -84 44.68 -84 44 C-84.66 43.34 -85.32 42.68 -86 42 C-84 40 -84 40 -82.273 39.805 C-80.516 39.87 -78.758 39.935 -77 40 C-77 39.34 -77 38.68 -77 38 C-73.7 38 -70.4 38 -67 38 C-67 37.34 -67 36.68 -67 36 C-63.708 35.971 -60.417 35.953 -57.125 35.938 C-56.188 35.929 -55.251 35.921 -54.285 35.912 C-53.837 35.91 -53.837 35.91 -51.57 35.902 C-51.157 35.9 -51.157 35.9 -49.063 35.886 C-47 36 -47 36 -45 37 C-45 37.66 -45 38.32 -45 39 C-44.34 39 -43.68 39 -43 39 C-43 38.01 -43 37.02 -43 36 C-41.708 35.973 -40.417 35.954 -39.125 35.938 C-38.406 35.926 -37.686 35.914 -36.945 35.902 C-35 36 -35 36 -33 37 C-33 36.34 -33 35.68 -33 35 C-31.88 35.046 -30.76 35.093 -29.605 35.141 C-28.133 35.178 -26.66 35.215 -25.188 35.25 C-24.45 35.284 -23.712 35.317 -22.951 35.352 C-20.895 35.389 -19.022 35.382 -17 35 C-15.266 33.035 -15.266 33.035 -14 31 C-11.879 30.355 -11.879 30.355 -9.562 30.188 C-9.182 30.153 -9.182 30.153 -7.254 29.98 C-5 30 -5 30 -2.902 30.551 C-1 31 -1 31 2 30 C2.33 29.34 2.66 28.68 3 28 C4.32 28 5.64 28 7 28 C7.33 27.34 7.66 26.68 8 26 C9.976 25.265 11.982 24.609 14 24 C19.778 22.111 19.778 22.111 22 21 C21.67 19.35 21.34 17.7 21 16 C20.67 16.66 20.34 17.32 20 18 C19.505 17.835 19.505 17.835 17 17 C17 16.34 17 15.68 17 15 C16.729 15.017 16.729 15.017 15.355 15.105 C9.406 15.331 9.406 15.331 7.312 13.625 C6.879 13.089 6.446 12.553 6 12 C5.196 11.691 4.391 11.381 3.562 11.062 C0.649 9.854 -0.907 8.325 -3 6 C-2.34 6 -1.68 6 -1 6 C-1 5.34 -1 4.68 -1 4 C-2.32 4 -3.64 4 -5 4 C-5 3.34 -5 2.68 -5 2 C-4.01 2.165 -4.01 2.165 1 3 C0.835 2.505 0.835 2.505 0 0 Z " fill="#5080DA" transform="translate(289,13)"/>
<path d="M0 0 C0.706 0.111 1.413 0.222 2.141 0.336 C2.406 0.384 2.406 0.384 3.75 0.625 C3.75 1.285 3.75 1.945 3.75 2.625 C4.146 2.622 4.146 2.622 6.149 2.609 C9.103 2.592 12.057 2.58 15.011 2.57 C16.286 2.565 17.562 2.558 18.837 2.55 C20.677 2.537 22.516 2.532 24.355 2.527 C25.46 2.522 26.565 2.517 27.704 2.511 C30.75 2.625 30.75 2.625 33.525 3.194 C35.75 3.625 35.75 3.625 37.75 2.625 C39.123 2.556 40.5 2.54 41.875 2.562 C42.237 2.567 42.237 2.567 44.07 2.59 C44.347 2.596 44.347 2.596 45.75 2.625 C45.75 2.955 45.75 3.285 45.75 3.625 C46.449 3.686 47.147 3.746 47.867 3.809 C48.777 3.892 49.687 3.976 50.625 4.062 C51.53 4.144 52.435 4.225 53.367 4.309 C55.75 4.625 55.75 4.625 57.75 5.625 C59.555 5.758 59.555 5.758 61.625 5.75 C61.964 5.751 61.964 5.751 63.68 5.758 C65.75 5.625 65.75 5.625 67.39 5.123 C70.791 4.405 74.113 4.503 77.578 4.527 C78.327 4.529 79.076 4.53 79.848 4.532 C82.232 4.537 84.616 4.55 87 4.562 C88.62 4.568 90.24 4.572 91.859 4.576 C95.823 4.587 99.786 4.604 103.75 4.625 C103.75 5.285 103.75 5.945 103.75 6.625 C104.41 6.625 105.07 6.625 105.75 6.625 C105.75 7.945 105.75 9.265 105.75 10.625 C75.79 11.811 45.849 12.047 15.875 11.188 C15.156 11.168 14.437 11.148 13.697 11.128 C11.696 11.072 9.696 11.008 7.695 10.941 C6.566 10.905 5.437 10.868 4.274 10.83 C1.75 10.625 1.75 10.625 0.75 9.625 C-0.763 9.492 -2.282 9.422 -3.801 9.379 C-4.727 9.346 -5.653 9.313 -6.607 9.279 C-8.566 9.218 -10.524 9.161 -12.482 9.107 C-13.412 9.073 -14.343 9.039 -15.301 9.004 C-15.727 8.991 -15.727 8.991 -17.884 8.928 C-20.394 8.607 -22.072 7.883 -24.25 6.625 C-24.25 5.965 -24.25 5.305 -24.25 4.625 C-25.57 4.625 -26.89 4.625 -28.25 4.625 C-28.25 3.635 -28.25 2.645 -28.25 1.625 C-27.672 1.79 -27.095 1.955 -26.5 2.125 C-22.435 3.028 -18.38 2.549 -14.25 2.25 C-13.219 2.18 -12.188 2.111 -11.125 2.039 C-8.25 1.625 -8.25 1.625 -6.141 0.562 C-3.808 -0.594 -2.54 -0.423 0 0 Z " fill="#558BDA" transform="translate(98.25,50.375)"/>
<path d="M0 0 C1.488 0.005 2.975 0.01 4.463 0.014 C7.954 0.024 11.446 0.041 14.938 0.062 C14.938 0.392 14.938 0.722 14.938 1.062 C14.451 1.072 14.451 1.072 11.988 1.123 C8.362 1.199 4.738 1.288 1.113 1.38 C-0.453 1.418 -2.02 1.453 -3.586 1.484 C-5.843 1.53 -8.099 1.588 -10.355 1.648 C-11.051 1.66 -11.748 1.672 -12.465 1.683 C-16.477 1.804 -19.332 2.476 -23.062 4.062 C-25.141 4.406 -27.232 4.671 -29.328 4.879 C-29.942 4.94 -30.556 5.001 -31.189 5.064 C-33.229 5.262 -35.271 5.445 -37.312 5.625 C-38.021 5.689 -38.729 5.754 -39.458 5.82 C-70.189 8.57 -101.227 8.414 -132.049 7.69 C-134.916 7.624 -137.783 7.565 -140.65 7.506 C-142.482 7.464 -144.313 7.422 -146.145 7.379 C-146.998 7.362 -147.851 7.345 -148.729 7.328 C-149.124 7.318 -149.124 7.318 -151.12 7.268 C-151.812 7.252 -152.503 7.237 -153.215 7.221 C-155.062 7.062 -155.062 7.062 -158.062 6.062 C-160.056 5.935 -162.053 5.861 -164.051 5.816 C-165.244 5.783 -166.438 5.75 -167.631 5.717 C-169.5 5.67 -171.369 5.625 -173.239 5.586 C-175.052 5.546 -176.864 5.494 -178.676 5.441 C-179.756 5.416 -180.837 5.391 -181.95 5.365 C-185.325 5.037 -187.904 4.248 -191.062 3.062 C-191.062 2.733 -191.062 2.403 -191.062 2.062 C-190.72 2.06 -190.72 2.06 -188.984 2.05 C-172.123 1.945 -155.263 1.837 -138.402 1.723 C-130.248 1.668 -122.094 1.615 -113.939 1.565 C-106.814 1.522 -99.688 1.475 -92.563 1.426 C-88.807 1.4 -85.05 1.375 -81.294 1.353 C-64.194 1.255 -47.112 0.99 -30.021 0.411 C-20.011 0.072 -10.015 -0.063 0 0 Z " fill="#0D85FB" transform="translate(259.0625,31.9375)"/>
<path d="M0 0 C0.963 0.165 1.926 0.33 2.918 0.5 C7.392 1.14 11.803 1.074 16.312 1 C17.913 0.975 19.513 0.953 21.113 0.938 C21.812 0.926 22.511 0.914 23.232 0.902 C25 1 25 1 27 2 C27 1.34 27 0.68 27 0 C31.62 0 36.24 0 41 0 C41 0.33 41 0.66 41 1 C38.36 1.33 35.72 1.66 33 2 C33.639 1.99 33.639 1.99 36.875 1.938 C40.75 1.875 40.75 1.875 43 3 C45.331 3.308 47.662 3.509 50.004 3.719 C52 4 52 4 53 5 C54.347 5.231 55.704 5.412 57.062 5.562 C57.429 5.604 57.429 5.604 59.285 5.816 C59.851 5.877 60.417 5.938 61 6 C61 5.34 61 4.68 61 4 C62.98 3.67 64.96 3.34 67 3 C67 2.34 67 1.68 67 1 C67.66 1.33 67.66 1.33 71 3 C71 3.66 71 4.32 71 5 C71.66 5 72.32 5 73 5 C73 5.99 73 6.98 73 8 C73.99 7.67 74.98 7.34 76 7 C76.33 7.99 76.66 8.98 77 10 C77.66 10 78.32 10 79 10 C79.33 9.34 79.66 8.68 80 8 C80.33 8.99 80.66 9.98 81 11 C79.208 11.027 77.417 11.046 75.625 11.062 C74.627 11.074 73.63 11.086 72.602 11.098 C70 11 70 11 68 10 C68 9.34 68 8.68 68 8 C67.196 8.021 66.391 8.041 65.562 8.062 C63 8 63 8 62 7 C61.67 7.66 61.34 8.32 61 9 C50.68 9.108 40.375 9.077 30.062 8.625 C29.229 8.594 28.396 8.563 27.538 8.531 C21.55 8.236 21.55 8.236 18.531 6.941 C14.53 5.453 10.644 6.015 6.438 6.312 C5.587 6.361 4.737 6.409 3.861 6.459 C-2.393 6.847 -2.393 6.847 -4.94 7.491 C-9.412 8.596 -14.107 8.69 -18.688 9.062 C-19.739 9.153 -20.79 9.244 -21.873 9.338 C-27.336 9.79 -32.731 10.097 -38.214 9.996 C-41.172 10.002 -43.849 10.66 -46.672 11.494 C-51.867 12.949 -56.625 13.246 -62 13.125 C-62.387 13.12 -62.387 13.12 -64.348 13.098 C-66.232 13.074 -68.116 13.039 -70 13 C-69.188 11.062 -69.188 11.062 -68 9 C-64.867 7.956 -64.01 8.066 -61 9 C-61 8.01 -61 7.02 -61 6 C-58.03 6 -55.06 6 -52 6 C-52 5.34 -52 4.68 -52 4 C-49.69 4 -47.38 4 -45 4 C-45 4.66 -45 5.32 -45 6 C-42.625 5.688 -42.625 5.688 -40 5 C-39.718 4.495 -39.435 3.989 -39.145 3.469 C-38 2 -38 2 -35.723 1.707 C-34.845 1.742 -33.967 1.777 -33.062 1.812 C-32.187 1.84 -31.312 1.867 -30.41 1.895 C-29.615 1.929 -28.819 1.964 -28 2 C-27.01 2 -26.02 2 -25 2 C-23.667 2 -22.333 2 -21 2 C-21 2.66 -21 3.32 -21 4 C-20.443 4.021 -20.443 4.021 -17.625 4.125 C-17.312 4.137 -17.312 4.137 -15.727 4.195 C-14 4 -14 4 -12 2 C-9.18 1.586 -9.18 1.586 -5.875 1.375 C-4.779 1.3 -3.684 1.225 -2.555 1.148 C-1.712 1.099 -0.869 1.05 0 1 C0 0.67 0 0.34 0 0 Z " fill="#407AF7" transform="translate(149,8)"/>
<path d="M0 0 C2.329 0.376 4.662 0.685 7 1 C6.34 2.32 5.68 3.64 5 5 C3.35 5 1.7 5 0 5 C0 4.34 0 3.68 0 3 C-2.31 3 -4.62 3 -7 3 C-7 3.66 -7 4.32 -7 5 C-9.97 5 -12.94 5 -16 5 C-16 5.99 -16 6.98 -16 8 C-18.31 8 -20.62 8 -23 8 C-23.226 8.646 -23.451 9.292 -23.684 9.957 C-25 12 -25 12 -27.348 12.574 C-28.244 12.612 -29.139 12.649 -30.062 12.688 C-34.932 12.932 -34.932 12.932 -36 14 C-38.336 14.161 -40.661 14.279 -43 14.375 C-48.349 14.652 -52.845 15.335 -57.863 17.305 C-61.194 18.389 -64.551 18.564 -68.031 18.789 C-70 19 -70 19 -71 20 C-72.666 20.041 -74.334 20.043 -76 20 C-76 21.32 -76 22.64 -76 24 C-70.72 24.33 -65.44 24.66 -60 25 C-60 25.66 -60 26.32 -60 27 C-58.68 27 -57.36 27 -56 27 C-56 27.66 -56 28.32 -56 29 C-61.042 30.164 -65.937 30.226 -71 29 C-71.33 28.34 -71.66 27.68 -72 27 C-74.166 26.549 -76.248 26.207 -78.438 25.938 C-84.776 25.112 -84.776 25.112 -87 24 C-87 23.01 -87 22.02 -87 21 C-78.68 17.444 -69.906 16.869 -61 16 C-61 13.69 -61 11.38 -61 9 C-60.381 8.773 -59.763 8.546 -59.125 8.312 C-56.38 6.617 -56.065 4.971 -55 2 C-53.889 1.939 -52.778 1.879 -51.633 1.816 C-50.13 1.732 -48.628 1.647 -47.125 1.562 C-46.398 1.523 -45.671 1.484 -44.922 1.443 C-40.98 1.219 -37.072 0.907 -33.148 0.465 C-27.59 -0.113 -22.082 -0.075 -16.5 0 C-14.552 0.025 -12.604 0.046 -10.656 0.062 C-10.232 0.068 -10.232 0.068 -8.088 0.098 C-0.885 -0.239 -0.885 -0.239 0 0 Z " fill="#4A75F4" transform="translate(104,9)"/>
<path d="M0 0 C0.99 0.33 1.98 0.66 3 1 C3 1.66 3 2.32 3 3 C3.701 2.814 4.403 2.629 5.125 2.438 C8.339 1.948 10.836 2.338 14 3 C14 3.66 14 4.32 14 5 C14.66 5 15.32 5 16 5 C16 4.34 16 3.68 16 3 C22.625 1.875 22.625 1.875 26 3 C26 3.66 26 4.32 26 5 C27.32 4.34 28.64 3.68 30 3 C30.66 4.98 31.32 6.96 32 9 C35.413 9.698 38.827 10.391 42.242 11.081 C43.965 11.43 45.688 11.783 47.41 12.135 C53.265 13.316 59.06 14.367 65 15 C65 16.32 65 17.64 65 19 C63.752 19.339 62.501 19.671 61.25 20 C60.554 20.186 59.858 20.371 59.141 20.562 C57.029 20.994 55.148 21.077 53 21 C53 21.66 53 22.32 53 23 C48.147 25.426 43.192 25.624 37.875 26.062 C36.08 26.217 34.286 26.374 32.492 26.535 C32.097 26.568 32.097 26.568 30.097 26.735 C28 27 28 27 25 28 C23.603 28.086 22.203 28.118 20.804 28.114 C19.963 28.113 19.123 28.113 18.257 28.113 C17.353 28.108 16.45 28.103 15.52 28.098 C14.592 28.096 13.664 28.095 12.707 28.093 C9.742 28.088 6.777 28.075 3.812 28.062 C1.803 28.057 -0.207 28.053 -2.217 28.049 C-7.145 28.038 -12.072 28.021 -17 28 C-17 27.67 -17 27.34 -17 27 C-12.294 26.14 -7.623 25.656 -2.855 25.281 C-2.471 25.25 -2.471 25.25 -0.524 25.091 C1.921 24.892 4.367 24.696 6.812 24.5 C9.248 24.304 11.683 24.107 14.117 23.909 C15.627 23.786 17.136 23.665 18.645 23.545 C23.105 23.184 27.535 22.714 31.971 22.139 C34.009 21.999 35.686 22.188 37.688 22.562 C41.46 23.061 43.476 22.302 47 21 C49.875 20.875 49.875 20.875 52 21 C52 20.01 52 19.02 52 18 C53.32 18 54.64 18 56 18 C56 17.01 56 16.02 56 15 C55.443 15.023 54.886 15.046 54.312 15.07 C53.549 15.088 52.786 15.106 52 15.125 C51.629 15.137 51.629 15.137 49.75 15.195 C47.4 15.028 45.563 14.661 43.312 14.047 C38.572 12.794 33.877 12.472 29 12.125 C20.498 11.434 12.106 10.376 3.688 9 C2.638 8.834 1.588 8.668 0.506 8.497 C-0.462 8.333 -1.429 8.169 -2.426 8 C-2.856 7.928 -2.856 7.928 -5.032 7.562 C-5.357 7.47 -5.357 7.47 -7 7 C-7.33 6.34 -7.66 5.68 -8 5 C-6.845 4.835 -6.845 4.835 -1 4 C-0.67 2.68 -0.34 1.36 0 0 Z " fill="#326DF0" transform="translate(230,14)"/>
<path d="M0 0 C1.812 -0.027 3.625 -0.046 5.438 -0.062 C6.447 -0.074 7.456 -0.086 8.496 -0.098 C11 0 11 0 12 1 C14.82 1.238 17.631 1.394 20.457 1.518 C24.227 1.731 27.407 2.415 31.036 3.539 C35.153 4.505 39.414 4.442 43.625 4.562 C45.471 4.623 47.318 4.686 49.164 4.754 C49.973 4.778 50.782 4.802 51.616 4.826 C54 5 54 5 56.407 5.498 C59.408 6.079 62.269 6.197 65.324 6.281 C65.912 6.3 66.499 6.318 67.104 6.337 C69.599 6.415 72.093 6.484 74.588 6.552 C76.417 6.604 78.246 6.661 80.074 6.719 C80.619 6.734 80.619 6.734 83.374 6.811 C86 7 86 7 88 8 C90.32 8.099 92.609 8.14 94.93 8.133 C95.627 8.134 96.325 8.135 97.044 8.137 C99.321 8.139 101.598 8.132 103.875 8.125 C104.263 8.125 104.263 8.125 106.226 8.122 C115.797 8.109 125.326 7.959 134.881 7.358 C145.242 6.739 155.626 6.913 166 7 C166 7.66 166 8.32 166 9 C147.104 14.122 126.336 11.888 107 11 C107 11.66 107 12.32 107 13 C104.625 13.625 104.625 13.625 102 14 C101.67 13.67 101.67 13.67 100 12 C98.406 11.84 98.406 11.84 96.5 11.938 C93.474 12.018 90.628 11.879 87.625 11.5 C82.71 10.944 77.874 10.999 72.938 11.062 C66.81 11.127 60.831 11.177 55 9 C54.835 8.835 54.835 8.835 54 8 C51.717 7.9 49.47 7.861 47.188 7.875 C46.558 7.871 45.928 7.867 45.279 7.863 C42.038 7.87 39.1 8.016 36 9 C36 8.34 36 7.68 36 7 C35.001 7.012 34.002 7.023 32.973 7.035 C31.669 7.045 30.366 7.054 29.062 7.062 C28.733 7.067 28.733 7.067 27.064 7.088 C25.376 7.097 23.688 7.052 22 7 C21.67 6.67 21.34 6.34 21 6 C19.526 5.792 18.045 5.633 16.562 5.5 C12.219 5.11 12.219 5.11 10 4 C8.004 3.641 6.005 3.305 4 3 C4 2.34 4 1.68 4 1 C2.68 0.67 1.36 0.34 0 0 Z " fill="#3383F2" transform="translate(44,35)"/>
<path d="M0 0 C1.604 -0.027 3.208 -0.046 4.812 -0.062 C5.706 -0.074 6.599 -0.086 7.52 -0.098 C10 0 10 0 13 1 C14.311 1.112 15.627 1.176 16.942 1.205 C17.731 1.225 18.52 1.245 19.333 1.266 C20.186 1.282 21.039 1.299 21.918 1.316 C22.363 1.327 22.363 1.327 24.615 1.379 C26.507 1.423 28.399 1.464 30.292 1.503 C33.131 1.561 35.971 1.627 38.811 1.693 C55.634 2.076 72.408 2.039 89.23 1.628 C91.958 1.562 94.687 1.503 97.416 1.443 C99.182 1.401 100.949 1.359 102.715 1.316 C103.515 1.3 104.315 1.283 105.14 1.266 C109.762 1.146 114.283 0.767 118.874 0.218 C121.996 -0.102 125.087 -0.125 128.223 -0.098 C128.854 -0.096 129.485 -0.095 130.135 -0.093 C132.111 -0.088 134.087 -0.075 136.062 -0.062 C137.419 -0.057 138.775 -0.053 140.131 -0.049 C143.421 -0.038 146.71 -0.021 150 0 C149.67 0.66 149.34 1.32 149 2 C144.787 3.211 140.417 3.282 136.062 3.5 C134.678 3.57 133.294 3.643 131.91 3.719 C131.303 3.749 130.696 3.779 130.071 3.811 C128 4 128 4 125.36 4.484 C121.019 5.151 116.713 5.345 112.328 5.535 C111.856 5.557 111.856 5.557 109.468 5.666 C106.396 5.803 103.323 5.934 100.25 6.062 C99.206 6.107 98.163 6.152 97.087 6.197 C83.12 6.785 69.168 7.195 55.188 7.188 C54.827 7.188 54.827 7.188 53 7.19 C41.377 7.188 41.377 7.188 39 6 C39 5.34 39 4.68 39 4 C38.655 4.005 38.655 4.005 36.908 4.032 C33.751 4.074 30.594 4.099 27.438 4.125 C26.894 4.133 26.894 4.133 24.146 4.176 C18.308 4.211 13.517 3.897 8 2 C6.527 1.749 5.048 1.531 3.562 1.375 C2.883 1.3 2.204 1.225 1.504 1.148 C1.008 1.099 0.511 1.05 0 1 C0 0.67 0 0.34 0 0 Z " fill="#197CF9" transform="translate(91,37)"/>
<path d="M0 0 C-0.33 0.66 -0.66 1.32 -1 2 C-2.32 2 -3.64 2 -5 2 C-5 2.66 -5 3.32 -5 4 C-5.796 4.02 -6.592 4.04 -7.412 4.06 C-10.413 4.139 -13.413 4.226 -16.414 4.317 C-17.703 4.355 -18.993 4.39 -20.283 4.422 C-27.272 4.596 -34.009 4.919 -40.838 6.584 C-43.266 7.051 -45.534 7.067 -48 7 C-48.33 7.66 -48.66 8.32 -49 9 C-60.145 9.655 -71.272 10.103 -82.438 10.125 C-83.401 10.13 -84.365 10.134 -85.358 10.139 C-90.028 10.129 -94.425 9.962 -99 9 C-99 8.34 -99 7.68 -99 7 C-100.32 6.67 -101.64 6.34 -103 6 C-102.01 6 -101.02 6 -100 6 C-100 5.34 -100 4.68 -100 4 C-93.409 3.028 -87.196 3.061 -80.562 3.5 C-67.278 4.243 -54.209 3.56 -41 2 C-41 1.34 -41 0.68 -41 0 C-36.447 -0.169 -31.894 -0.329 -27.34 -0.482 C-25.794 -0.535 -24.248 -0.591 -22.703 -0.648 C-20.469 -0.731 -18.234 -0.806 -16 -0.879 C-15.319 -0.906 -14.639 -0.933 -13.938 -0.961 C-9.203 -1.105 -4.681 -0.711 0 0 Z " fill="#4086EB" transform="translate(251,42)"/>
<path d="M0 0 C0 0.66 0 1.32 0 2 C0.536 1.649 1.072 1.299 1.625 0.938 C4.733 -0.289 6.794 0.271 10 1 C10 1.66 10 2.32 10 3 C14.622 3.025 19.245 3.043 23.867 3.055 C25.434 3.06 27.001 3.067 28.568 3.075 C36.976 3.121 45.245 3.076 53.608 2.119 C55.984 2.001 57.743 2.291 60 3 C60 2.34 60 1.68 60 1 C60.66 1 61.32 1 62 1 C62.33 1.66 62.33 1.66 64 5 C63.34 5.66 62.68 6.32 62 7 C62.33 7.495 62.33 7.495 64 10 C63.34 10.66 62.68 11.32 62 12 C62 11.01 62 10.02 62 9 C61.34 9 60.68 9 60 9 C60 8.34 60 7.68 60 7 C55.231 7.118 50.462 7.243 45.693 7.372 C44.072 7.416 42.45 7.457 40.828 7.497 C38.495 7.555 36.161 7.619 33.828 7.684 C33.105 7.7 32.382 7.717 31.637 7.734 C28.272 7.833 25.248 8.033 22 9 C20.627 9.088 19.251 9.13 17.875 9.125 C17.192 9.128 16.509 9.13 15.805 9.133 C14 9 14 9 12 8 C10.796 7.863 9.586 7.775 8.375 7.719 C7.669 7.681 6.962 7.644 6.234 7.605 C5.497 7.571 4.76 7.536 4 7.5 C2.541 7.431 1.083 7.358 -0.375 7.281 C-1.022 7.251 -1.669 7.221 -2.336 7.189 C-4 7 -4 7 -6 6 C-6.32 6.082 -6.32 6.082 -7.938 6.5 C-10 7 -10 7 -13 6 C-15.042 5.94 -17.086 5.939 -19.129 5.973 C-20.34 5.985 -21.552 5.998 -22.764 6.01 C-24.669 6.035 -26.573 6.063 -28.478 6.096 C-30.32 6.126 -32.162 6.144 -34.004 6.16 C-34.555 6.169 -34.555 6.169 -37.342 6.211 C-40 6 -40 6 -42 4 C-43.984 3.286 -45.983 2.614 -48 2 C-48 1.67 -48 1.34 -48 1 C-45.042 0.971 -42.083 0.953 -39.125 0.938 C-38.283 0.929 -37.441 0.921 -36.574 0.912 C-35.769 0.909 -34.963 0.906 -34.133 0.902 C-33.761 0.9 -33.761 0.9 -31.879 0.886 C-30 1 -30 1 -28 2 C-26.296 2.226 -24.587 2.409 -22.875 2.562 C-21.965 2.646 -21.055 2.73 -20.117 2.816 C-19.419 2.877 -18.72 2.938 -18 3 C-18 2.34 -18 1.68 -18 1 C-17.34 1 -16.68 1 -16 1 C-16 1.66 -16 2.32 -16 3 C-15.013 2.783 -14.025 2.567 -13.008 2.344 C-11.714 2.062 -10.419 1.781 -9.125 1.5 C-8.474 1.357 -7.823 1.214 -7.152 1.066 C-2.227 0 -2.227 0 0 0 Z " fill="#4C8AE2" transform="translate(142,48)"/>
<path d="M0 0 C0.33 0.33 0.66 0.66 1 1 C4.123 1.17 7.238 1.297 10.365 1.342 C13.944 1.492 15.566 1.669 18.496 3.902 C20 6 20 6 19.75 8.25 C19.502 8.828 19.255 9.405 19 10 C18.175 9.835 18.175 9.835 14 9 C14.165 9.495 14.165 9.495 15 12 C13.35 12.66 11.7 13.32 10 14 C10 14.66 10 15.32 10 16 C9.34 16 8.68 16 8 16 C8 15.34 8 14.68 8 14 C4.37 14 0.74 14 -3 14 C-3.33 13.34 -3.66 12.68 -4 12 C-7 13 -7 13 -8 15 C-8.66 15 -9.32 15 -10 15 C-10.66 14.34 -11.32 13.68 -12 13 C-12.66 13 -13.32 13 -14 13 C-14 12.01 -14 11.02 -14 10 C-14.66 10 -15.32 10 -16 10 C-16.289 9.505 -16.577 9.01 -16.875 8.5 C-17.246 8.005 -17.618 7.51 -18 7 C-20.125 6.812 -20.125 6.812 -22 7 C-22 5.68 -22 4.36 -22 3 C-22.66 3 -23.32 3 -24 3 C-24 3.66 -24 4.32 -24 5 C-25.98 5 -27.96 5 -30 5 C-30 4.34 -30 3.68 -30 3 C-20.719 -1.103 -9.963 -0.896 0 0 Z " fill="#4971EF" transform="translate(236,3)"/>
<path d="M0 0 C5.75 0.006 11.499 0.002 17.249 -0.004 C21.739 -0.007 26.23 -0.006 30.72 -0.003 C32.84 -0.003 34.96 -0.004 37.08 -0.006 C48.591 -0.016 60.012 0.144 71.484 1.13 C71.154 1.79 70.824 2.45 70.484 3.13 C22.157 4.409 -26.194 4.869 -74.516 3.13 C-74.186 2.47 -73.856 1.81 -73.516 1.13 C-49.019 -0.061 -24.52 -0.025 0 0 Z " fill="#C7F3FD" transform="translate(153.515625,28.86962890625)"/>
<path d="M0 0 C0 0.66 0 1.32 0 2 C-11.88 2 -23.76 2 -36 2 C-36 1.34 -36 0.68 -36 0 C-62.07 0 -88.14 0 -115 0 C-115 -0.33 -115 -0.66 -115 -1 C-124.57 -1.33 -134.14 -1.66 -144 -2 C-144 -2.33 -144 -2.66 -144 -3 C-30.168 -8.245 -30.168 -8.245 0 0 Z " fill="#0B81FB" transform="translate(246,27)"/>
<path d="M0 0 C0.613 -0.005 1.226 -0.009 1.858 -0.014 C6.076 0 10.086 0.452 14.25 1.125 C9.056 5.708 -1.376 4.436 -7.898 4.643 C-12.353 4.831 -15.618 5.368 -19.75 7.125 C-22.108 7.39 -24.387 7.584 -26.75 7.688 C-33.189 8.011 -33.189 8.011 -36.168 8.617 C-39.782 9.328 -43.389 9.487 -47.062 9.688 C-47.803 9.731 -48.544 9.774 -49.307 9.818 C-51.121 9.924 -52.935 10.025 -54.75 10.125 C-54.75 10.785 -54.75 11.445 -54.75 12.125 C-54.224 12.115 -54.224 12.115 -51.562 12.062 C-49.396 12.02 -47.571 12.163 -45.442 12.616 C-42.801 13.115 -40.344 13.296 -37.66 13.371 C-36.711 13.404 -35.761 13.437 -34.783 13.471 C-32.807 13.532 -30.83 13.589 -28.854 13.643 C-21.392 13.911 -21.392 13.911 -17.836 15.098 C-12.802 16.773 -7.584 16.795 -2.312 17.125 C10.048 17.902 10.048 17.902 13.758 19.148 C18.873 20.837 24.354 20.598 29.688 20.75 C30.244 20.769 30.244 20.769 33.061 20.867 C35.79 20.961 38.52 21.047 41.25 21.125 C41.25 21.455 41.25 21.785 41.25 22.125 C37.496 22.15 33.743 22.168 29.989 22.18 C28.714 22.185 27.438 22.192 26.163 22.2 C24.323 22.213 22.484 22.218 20.645 22.223 C20.092 22.225 20.092 22.225 17.296 22.239 C14.479 22.134 11.998 21.708 9.25 21.125 C7.64 21.008 6.027 20.927 4.414 20.879 C3.514 20.846 2.615 20.813 1.688 20.779 C-0.18 20.718 -2.047 20.661 -3.914 20.607 C-7.9 20.457 -11.627 20.311 -15.453 19.125 C-19.09 18.022 -22.356 17.727 -26.125 17.562 C-32.626 17.249 -32.626 17.249 -33.75 16.125 C-35.745 15.826 -37.748 15.586 -39.754 15.371 C-40.352 15.306 -40.95 15.241 -41.566 15.174 C-43.481 14.966 -45.397 14.764 -47.312 14.562 C-48.609 14.423 -49.905 14.283 -51.201 14.143 C-54.384 13.799 -57.567 13.46 -60.75 13.125 C-60.75 11.805 -60.75 10.485 -60.75 9.125 C-57.104 7.686 -53.915 6.984 -50 6.688 C-46.435 6.396 -43.383 5.777 -40 4.625 C-35.134 3.029 -30.476 2.646 -25.396 2.416 C-20.92 2.21 -20.92 2.21 -18.75 1.125 C-12.545 0.178 -6.267 0.026 0 0 Z " fill="#3372F7" transform="translate(88.75,19.875)"/>
<path d="M0 0 C6.542 -0.37 6.542 -0.37 8.625 1.312 C9.079 1.869 9.533 2.426 10 3 C11.651 4.026 13.32 5.023 15 6 C19.484 8.767 23.874 11.675 27 16 C27.625 19.125 27.625 19.125 27 22 C23.309 26.785 18.045 29.098 12.551 31.254 C11 32 11 32 9 34 C6.678 34.557 4.381 34.735 2 35 C0.798 31.514 0.798 31.514 1.688 29.25 C3 28 3 28 5.125 27.812 C5.434 27.843 5.434 27.843 7 28 C7.33 27.34 7.66 26.68 8 26 C9.976 25.265 11.982 24.609 14 24 C19.778 22.111 19.778 22.111 22 21 C21.835 20.175 21.835 20.175 21 16 C20.67 16.66 20.34 17.32 20 18 C19.01 17.67 18.02 17.34 17 17 C17 16.34 17 15.68 17 15 C16.729 15.017 16.729 15.017 15.355 15.105 C9.406 15.331 9.406 15.331 7.312 13.625 C7.096 13.357 7.096 13.357 6 12 C5.196 11.691 4.391 11.381 3.562 11.062 C0.649 9.854 -0.907 8.325 -3 6 C-2.34 6 -1.68 6 -1 6 C-1 5.34 -1 4.68 -1 4 C-2.32 4 -3.64 4 -5 4 C-5 3.34 -5 2.68 -5 2 C-4.01 2.165 -4.01 2.165 1 3 C0.67 2.01 0.34 1.02 0 0 Z " fill="#566AD9" transform="translate(289,13)"/>
<path d="M0 0 C6.72 -0.023 13.441 -0.041 20.161 -0.052 C23.283 -0.057 26.404 -0.064 29.526 -0.075 C32.548 -0.086 35.569 -0.092 38.591 -0.095 C40.285 -0.098 41.979 -0.105 43.673 -0.113 C50.504 -0.114 57.21 0.254 64 1 C64 1.66 64 2.32 64 3 C25.116 4.584 -13.736 5.203 -52.652 5.188 C-55.972 5.188 -59.292 5.188 -62.611 5.19 C-85.423 5.193 -108.213 5.179 -131 4 C-131 3.67 -131 3.34 -131 3 C-129.891 3.002 -128.783 3.004 -127.641 3.007 C-116.942 3.027 -106.244 3.042 -95.545 3.052 C-90.052 3.057 -84.558 3.064 -79.064 3.075 C-48.028 3.139 -17.026 2.785 14 2 C11.69 1.835 11.69 1.835 0 1 C0 0.67 0 0.34 0 0 Z " fill="#5DC5FC" transform="translate(210,29)"/>
<path d="M0 0 C-0.66 0.33 -0.66 0.33 -4 2 C-4 2.99 -4 3.98 -4 5 C-1.525 5.33 -1.525 5.33 11 7 C11.33 7.99 11.66 8.98 12 10 C12.99 10 13.98 10 15 10 C15 10.66 15 11.32 15 12 C16.093 11.938 17.186 11.876 18.312 11.812 C21.744 11.806 21.744 11.806 23.812 13.375 C24.204 13.911 24.596 14.447 25 15 C25.66 15.66 26.32 16.32 27 17 C26.546 17.268 26.093 17.536 25.625 17.812 C23.917 19.061 23.116 20.229 22 22 C20.52 21.86 19.041 21.712 17.562 21.562 C16.739 21.481 15.915 21.4 15.066 21.316 C13 21 13 21 12 20 C10.253 19.842 8.502 19.723 6.75 19.625 C2.487 19.27 -0.698 18.96 -4 16 C-4 15.01 -4 14.02 -4 13 C-3.34 13 -2.68 13 -2 13 C-2 12.34 -2 11.68 -2 11 C-2.99 10.67 -3.98 10.34 -5 10 C-5 9.34 -5 8.68 -5 8 C-5.99 8.33 -6.98 8.66 -8 9 C-8.144 8.701 -8.144 8.701 -8.875 7.188 C-9.819 5.352 -10.819 3.687 -12 2 C-7.502 -0.678 -5.272 -1.381 0 0 Z " fill="#556EED" transform="translate(21,28)"/>
<path d="M0 0 C0.796 0.017 1.593 0.034 2.413 0.052 C13.913 0.316 25.266 1.34 36.688 2.688 C36.688 3.017 36.688 3.348 36.688 3.688 C26.584 3.748 16.51 3.597 6.413 3.26 C-17.159 2.495 -40.732 2.481 -64.312 2.688 C-65.084 2.694 -65.856 2.7 -66.652 2.706 C-83.407 2.855 -99.803 4.18 -116.413 6.307 C-126.422 7.572 -136.217 8.205 -146.312 7.688 C-146.312 7.358 -146.312 7.027 -146.312 6.688 C-141.725 5.636 -137.168 5.375 -132.484 5.17 C-129.746 5.012 -127.497 4.766 -124.961 3.688 C-121.018 2.199 -117.121 2.258 -112.938 2.125 C-111.284 2.064 -109.63 2.001 -107.977 1.934 C-107.249 1.91 -106.522 1.886 -105.772 1.861 C-103.312 1.688 -103.312 1.688 -100.08 1.19 C-96.57 0.682 -93.124 0.524 -89.575 0.466 C-88.938 0.455 -88.302 0.443 -87.646 0.432 C-85.549 0.395 -83.452 0.365 -81.355 0.336 C-79.865 0.312 -78.374 0.288 -76.883 0.264 C-72.089 0.189 -67.295 0.125 -62.5 0.062 C-60.858 0.04 -59.215 0.018 -57.573 -0.005 C-38.379 -0.261 -19.193 -0.46 0 0 Z " fill="#1D79FA" transform="translate(196.3125,21.3125)"/>
<path d="M0 0 C7.226 0.707 7.226 0.707 10.562 0.625 C10.562 1.285 10.562 1.945 10.562 2.625 C11.042 2.635 11.042 2.635 13.468 2.685 C17.021 2.761 20.573 2.85 24.125 2.942 C25.663 2.981 27.201 3.016 28.74 3.047 C30.949 3.092 33.158 3.15 35.367 3.211 C36.057 3.222 36.746 3.234 37.457 3.246 C42.335 3.397 42.335 3.397 44.562 5.625 C8.593 5.625 -27.377 5.625 -64.438 5.625 C-61.069 3.379 -61.069 3.379 -57.891 3.5 C-57.21 3.515 -56.529 3.531 -55.828 3.547 C-54.417 3.598 -53.005 3.65 -51.594 3.703 C-47.455 3.796 -44.148 3.381 -40.215 2.115 C-36.948 1.215 -33.621 1.104 -30.25 0.938 C-29.512 0.896 -28.774 0.854 -28.013 0.81 C-22.492 0.547 -17.241 0.826 -11.758 1.566 C-9.438 1.625 -9.438 1.625 -8.02 0.629 C-5.426 -1.017 -2.981 -0.304 0 0 Z " fill="#2A7EFA" transform="translate(169.4375,16.375)"/>
<path d="M0 0 C0.165 0.66 0.165 0.66 1 4 C-1.31 4 -3.62 4 -6 4 C-6.226 4.646 -6.451 5.292 -6.684 5.957 C-8 8 -8 8 -10.348 8.574 C-11.244 8.612 -12.139 8.649 -13.062 8.688 C-17.932 8.932 -17.932 8.932 -19 10 C-21.336 10.161 -23.661 10.279 -26 10.375 C-31.349 10.652 -35.845 11.335 -40.863 13.305 C-44.194 14.389 -47.551 14.564 -51.031 14.789 C-53 15 -53 15 -54 16 C-55.666 16.041 -57.334 16.043 -59 16 C-59 17.32 -59 18.64 -59 20 C-53.72 20.33 -48.44 20.66 -43 21 C-43 21.66 -43 22.32 -43 23 C-41.68 23 -40.36 23 -39 23 C-39 23.66 -39 24.32 -39 25 C-44.042 26.164 -48.937 26.226 -54 25 C-54.33 24.34 -54.66 23.68 -55 23 C-57.166 22.549 -59.248 22.207 -61.438 21.938 C-67.776 21.112 -67.776 21.112 -70 20 C-70 19.01 -70 18.02 -70 17 C-62.124 14.01 -54.227 12.777 -45.912 11.627 C-44.921 11.473 -43.931 11.319 -42.91 11.16 C-42.014 11.033 -41.119 10.905 -40.196 10.774 C-38 10 -38 10 -36.693 7.927 C-36.464 7.291 -36.236 6.655 -36 6 C-35.835 6.33 -35.835 6.33 -35 8 C-34.01 7.01 -33.02 6.02 -32 5 C-31.34 5.33 -30.68 5.66 -30 6 C-28.338 6.356 -26.672 6.692 -25 7 C-24.67 6.34 -24.34 5.68 -24 5 C-21.69 5.33 -19.38 5.66 -17 6 C-17 5.34 -17 4.68 -17 4 C-15.02 3.01 -13.04 2.02 -11 1 C-11 1.66 -11 2.32 -11 3 C-10.649 2.752 -10.649 2.752 -8.875 1.5 C-5.629 -0.194 -3.607 -0.252 0 0 Z " fill="#4370F4" transform="translate(87,13)"/>
<path d="M0 0 C0.901 0.389 1.802 0.779 2.73 1.18 C3.074 1.336 3.074 1.336 4.812 2.125 C4.812 1.465 4.812 0.805 4.812 0.125 C7.771 0.096 10.729 0.078 13.688 0.062 C14.529 0.054 15.371 0.046 16.238 0.037 C17.044 0.034 17.85 0.031 18.68 0.027 C19.052 0.025 19.052 0.025 20.933 0.011 C22.812 0.125 22.812 0.125 24.812 1.125 C27.828 1.402 30.844 1.572 33.867 1.746 C36.665 2.106 38.414 2.694 40.812 4.125 C37.427 7.256 35.101 7.461 30.562 7.312 C30.024 7.299 30.024 7.299 27.297 7.23 C26.477 7.196 25.657 7.161 24.812 7.125 C24.483 7.785 24.153 8.445 23.812 9.125 C21.502 8.135 19.192 7.145 16.812 6.125 C16.812 7.115 16.812 8.105 16.812 9.125 C18.132 9.125 19.453 9.125 20.812 9.125 C20.812 9.785 20.812 10.445 20.812 11.125 C15.61 11.506 12.385 10.264 7.812 8.125 C2.267 5.856 -3.267 5.525 -9.188 5.125 C-8.591 0.591 -8.591 0.591 -6.949 -1.305 C-4.212 -2.191 -2.577 -1.138 0 0 Z " fill="#5180E4" transform="translate(53.1875,45.875)"/>
<path d="M0 0 C-0.33 0.66 -0.66 1.32 -1 2 C-2.65 2 -4.3 2 -6 2 C-6 2.66 -6 3.32 -6 4 C-6.66 4 -7.32 4 -8 4 C-8 4.99 -8 5.98 -8 7 C-11.3 6.67 -14.6 6.34 -18 6 C-18 6.66 -18 7.32 -18 8 C-21.3 7.67 -24.6 7.34 -28 7 C-28 7.99 -28 8.98 -28 10 C-28.66 10 -29.32 10 -30 10 C-30 9.34 -30 8.68 -30 8 C-30.459 8.006 -30.459 8.006 -32.781 8.035 C-39.282 8.092 -45.561 8.03 -52 7 C-52 7.66 -52 8.32 -52 9 C-55.3 9 -58.6 9 -62 9 C-62 9.66 -62 10.32 -62 11 C-64.812 11.312 -64.812 11.312 -68 11 C-69.699 8.48 -69.699 8.48 -71 6 C-70.085 5.939 -69.17 5.879 -68.227 5.816 C-67.026 5.732 -65.826 5.647 -64.625 5.562 C-64.022 5.523 -63.418 5.484 -62.797 5.443 C-58.227 5.113 -58.227 5.113 -56 4 C-53.882 3.914 -51.797 3.884 -49.68 3.902 C-49.37 3.903 -49.37 3.903 -47.805 3.907 C-45.828 3.912 -43.852 3.925 -41.875 3.938 C-40.535 3.943 -39.195 3.947 -37.855 3.951 C-34.57 3.962 -31.285 3.979 -28 4 C-28 3.34 -28 2.68 -28 2 C-23.762 -0.26 -20.086 -0.11 -15.422 0 C-13 0 -13 0 -9.812 -0.562 C-6.272 -1.113 -3.517 -0.633 0 0 Z " fill="#4976DE" transform="translate(274,42)"/>
<path d="M0 0 C3.492 -0.1 6.594 0.222 10 1 C10.041 1.464 10.041 1.464 10.25 3.812 C11.115 7.488 11.941 8.026 15 10 C15 10.66 15 11.32 15 12 C15.619 11.959 16.238 11.918 16.875 11.875 C19 12 19 12 21 14 C21.66 13.67 22.32 13.34 23 13 C23 13.99 23 14.98 23 16 C23.516 16.103 24.031 16.206 24.562 16.312 C26.648 16.901 28.412 17.608 30.375 18.5 C33.599 19.928 36.507 20.574 40 21 C40 21.33 40 21.66 40 22 C32.732 22.356 26.092 21.003 19 19.5 C17.832 19.258 16.664 19.018 15.496 18.777 C12.663 18.192 9.831 17.599 7 17 C6.34 15.02 5.68 13.04 5 11 C3.68 11.33 2.36 11.66 1 12 C1 11.34 1 10.68 1 10 C0.34 10 -0.32 10 -1 10 C-1.33 10.66 -1.66 11.32 -2 12 C-2.33 11.34 -2.66 10.68 -3 10 C-5.062 9.375 -5.062 9.375 -7 9 C-6.34 8.34 -5.68 7.68 -5 7 C-5 6.34 -5 5.68 -5 5 C-3.02 4.67 -1.04 4.34 1 4 C0.67 2.68 0.34 1.36 0 0 Z " fill="#466DEA" transform="translate(255,7)"/>
<path d="M0 0 C0.99 0 1.98 0 3 0 C3.165 0.825 3.165 0.825 4 5 C3.105 5.114 3.105 5.114 -1.371 5.684 C-3 6 -3 6 -4 7 C-6.318 7.321 -8.638 7.512 -10.969 7.719 C-13 8 -13 8 -14 9 C-17.21 9.27 -20.412 9.446 -23.629 9.605 C-28.9 9.9 -28.9 9.9 -30 11 C-34.053 11.315 -38.116 11.295 -42 10 C-42 8.35 -42 6.7 -42 5 C-40.708 4.973 -39.417 4.954 -38.125 4.938 C-37.406 4.926 -36.686 4.914 -35.945 4.902 C-34 5 -34 5 -32 6 C-32 5.34 -32 4.68 -32 4 C-31.44 4.023 -31.44 4.023 -28.605 4.141 C-27.133 4.178 -25.66 4.215 -24.188 4.25 C-23.819 4.267 -23.819 4.267 -21.951 4.352 C-19.894 4.389 -18.023 4.381 -16 4 C-14.16 2.035 -14.16 2.035 -13 0 C-8.386 -1.363 -4.638 -0.788 0 0 Z " fill="#5273D6" transform="translate(288,44)"/>
<path d="M0 0 C0.706 0.111 1.413 0.222 2.141 0.336 C2.406 0.384 2.406 0.384 3.75 0.625 C3.75 1.285 3.75 1.945 3.75 2.625 C11.01 2.625 18.27 2.625 25.75 2.625 C21.648 4.676 20.134 4.625 15.75 4.625 C13.375 5.625 13.375 5.625 11.75 6.625 C11.75 7.285 11.75 7.945 11.75 8.625 C8.45 8.295 5.15 7.965 1.75 7.625 C1.42 8.285 1.09 8.945 0.75 9.625 C-2.667 9.515 -6.084 9.384 -9.5 9.25 C-10.468 9.219 -11.436 9.188 -12.434 9.156 C-12.901 9.137 -12.901 9.137 -15.266 9.039 C-16.124 9.008 -16.983 8.976 -17.868 8.944 C-20.378 8.608 -22.069 7.883 -24.25 6.625 C-24.25 5.965 -24.25 5.305 -24.25 4.625 C-25.57 4.625 -26.89 4.625 -28.25 4.625 C-28.25 3.635 -28.25 2.645 -28.25 1.625 C-27.672 1.79 -27.095 1.955 -26.5 2.125 C-22.435 3.028 -18.38 2.549 -14.25 2.25 C-13.219 2.18 -12.188 2.111 -11.125 2.039 C-8.25 1.625 -8.25 1.625 -6.141 0.562 C-3.808 -0.594 -2.54 -0.423 0 0 Z " fill="#5687E0" transform="translate(98.25,50.375)"/>
<path d="M0 0 C0 0.33 0 0.66 0 1 C-4.313 2.009 -8.532 2.279 -12.938 2.5 C-14.322 2.57 -15.706 2.643 -17.09 2.719 C-17.697 2.749 -18.304 2.779 -18.929 2.811 C-21 3 -21 3 -23.64 3.484 C-27.981 4.151 -32.287 4.345 -36.672 4.535 C-37.144 4.557 -37.144 4.557 -39.532 4.666 C-42.604 4.803 -45.677 4.934 -48.75 5.062 C-49.794 5.107 -50.837 5.152 -51.913 5.197 C-65.88 5.785 -79.832 6.195 -93.812 6.188 C-94.173 6.188 -94.173 6.188 -96 6.19 C-107.623 6.188 -107.623 6.188 -110 5 C-110 4.34 -110 3.68 -110 3 C-110.66 2.67 -111.32 2.34 -112 2 C-110.947 2.072 -109.894 2.144 -108.809 2.219 C-95.854 3.069 -83.126 3.25 -70.17 2.426 C-59.919 1.815 -49.648 1.634 -39.382 1.393 C-31.116 1.191 -22.873 0.872 -14.621 0.336 C-9.737 0.02 -4.896 -0.089 0 0 Z " fill="#247FF6" transform="translate(240,38)"/>
<path d="M0 0 C2 0 2 0 3.625 1.5 C3.852 1.747 3.852 1.747 5 3 C5.33 2.01 5.66 1.02 6 0 C6.33 0 6.66 0 7 0 C7.363 5.446 7.363 5.446 5.812 7.812 C3.562 9.287 1.646 9.603 -1 10 C-1.99 10.33 -2.98 10.66 -4 11 C-4.99 11 -5.98 11 -7 11 C-7.268 11.619 -7.536 12.237 -7.812 12.875 C-9.022 15.04 -9.863 15.834 -12 17 C-12.33 16.34 -12.66 15.68 -13 15 C-13.66 15 -14.32 15 -15 15 C-15.33 15.66 -15.66 16.32 -16 17 C-17.052 16.814 -18.104 16.629 -19.188 16.438 C-23.542 15.813 -26.849 16.616 -31 18 C-31.33 18.99 -31.66 19.98 -32 21 C-33.98 20.67 -35.96 20.34 -38 20 C-38 19.34 -38 18.68 -38 18 C-37.34 18 -36.68 18 -36 18 C-36 17.34 -36 16.68 -36 16 C-35.051 15.711 -34.103 15.422 -33.125 15.125 C-30 14 -30 14 -28 12 C-25.956 11.625 -23.946 11.496 -21.875 11.344 C-20 11 -20 11 -18 9 C-15.64 8.733 -13.383 8.912 -11 9 C-11 8.34 -11 7.68 -11 7 C-7.04 7 -3.08 7 1 7 C0.835 5.845 0.835 5.845 0 0 Z " fill="#4C6CDD" transform="translate(304,28)"/>
<path d="M0 0 C0 0.99 0 1.98 0 3 C-1.871 3.536 -3.747 4.053 -5.625 4.562 C-6.669 4.853 -7.713 5.143 -8.789 5.441 C-12.255 6.044 -14.553 5.579 -18 5 C-21.022 5.146 -24.002 5.539 -27 5.938 C-32.038 6.582 -36.917 7.138 -42 7 C-42 6.67 -42 6.34 -42 6 C-46.95 5.67 -51.9 5.34 -57 5 C-57 4.67 -57 4.34 -57 4 C-56.264 3.951 -55.528 3.902 -54.77 3.852 C-53.794 3.777 -52.818 3.702 -51.812 3.625 C-50.85 3.555 -49.887 3.486 -48.895 3.414 C-46 3 -46 3 -43.783 2 C-40.361 0.77 -37.166 0.648 -33.574 0.586 C-32.868 0.567 -32.161 0.547 -31.434 0.527 C-29.185 0.468 -26.936 0.421 -24.688 0.375 C-23.188 0.337 -21.689 0.298 -20.189 0.258 C-13.458 0.086 -6.734 -0.024 0 0 Z " fill="#2768F3" transform="translate(282,32)"/>
<path d="M0 0 C0.887 0.165 1.774 0.33 2.688 0.5 C8.411 1.34 14.231 1.078 20 1 C20 1.66 20 2.32 20 3 C20.557 2.965 21.114 2.93 21.688 2.895 C27.447 2.69 31.769 3.605 37 6 C37 6.99 37 7.98 37 9 C31.744 9.759 27.199 10.2 22 9 C22 9.66 22 10.32 22 11 C16.761 9.359 11.838 7.605 7 5 C7 4.34 7 3.68 7 3 C4.69 3 2.38 3 0 3 C0 2.01 0 1.02 0 0 Z " fill="#4979ED" transform="translate(36,37)"/>
<path d="M0 0 C-0.33 0.66 -0.66 1.32 -1 2 C-2.32 2 -3.64 2 -5 2 C-5 2.66 -5 3.32 -5 4 C-6.149 4.02 -7.298 4.04 -8.481 4.06 C-12.798 4.137 -17.114 4.225 -21.431 4.317 C-23.289 4.355 -25.147 4.39 -27.005 4.422 C-37.168 4.597 -47.033 4.815 -57 7 C-57 6.34 -57 5.68 -57 5 C-57.66 4.67 -58.32 4.34 -59 4 C-56.938 3.662 -54.876 3.329 -52.812 3 C-52.234 2.905 -51.656 2.809 -51.061 2.711 C-47.671 2.175 -44.43 1.897 -41 2 C-41 1.34 -41 0.68 -41 0 C-36.447 -0.169 -31.894 -0.329 -27.34 -0.482 C-25.794 -0.535 -24.248 -0.591 -22.703 -0.648 C-20.469 -0.731 -18.234 -0.806 -16 -0.879 C-15.319 -0.906 -14.639 -0.933 -13.938 -0.961 C-9.203 -1.105 -4.681 -0.711 0 0 Z " fill="#387EEE" transform="translate(251,42)"/>
<path d="M0 0 C5.322 0.009 10.645 0.014 15.967 0.018 C28.037 0.029 40.107 0.046 52.176 0.069 C52.176 0.399 52.176 0.729 52.176 1.069 C51.682 1.073 51.188 1.077 50.68 1.081 C38.511 1.186 26.341 1.295 14.172 1.408 C8.287 1.463 2.401 1.516 -3.484 1.566 C-48.791 1.953 -48.791 1.953 -66.531 2.541 C-67.132 2.56 -67.733 2.579 -68.352 2.598 C-69.976 2.65 -71.599 2.711 -73.222 2.772 C-73.66 2.789 -73.66 2.789 -75.878 2.872 C-77.824 3.069 -77.824 3.069 -78.824 4.069 C-80.532 4.156 -82.243 4.176 -83.953 4.166 C-84.47 4.165 -84.47 4.165 -87.088 4.157 C-88.176 4.148 -89.265 4.14 -90.386 4.131 C-90.933 4.129 -90.933 4.129 -93.697 4.117 C-96.406 4.106 -99.115 4.089 -101.824 4.069 C-101.824 3.409 -101.824 2.749 -101.824 2.069 C-91.458 1.308 -81.108 0.788 -70.718 0.51 C-69.95 0.489 -69.181 0.468 -68.389 0.446 C-45.597 -0.158 -22.798 -0.045 0 0 Z " fill="#4EC6FC" transform="translate(157.82391357421875,27.93133544921875)"/>
<path d="M0 0 C0.774 0.001 1.548 0.003 2.346 0.004 C4.822 0.01 7.297 0.022 9.773 0.035 C11.451 0.04 13.128 0.045 14.805 0.049 C18.919 0.06 23.034 0.077 27.148 0.098 C27.148 0.428 27.148 0.758 27.148 1.098 C22.198 1.098 17.248 1.098 12.148 1.098 C12.148 1.758 12.148 2.418 12.148 3.098 C12.704 3.092 13.259 3.087 13.831 3.082 C29.968 2.952 46.031 3.398 62.148 4.098 C62.148 4.428 62.148 4.758 62.148 5.098 C54.533 5.144 46.917 5.18 39.301 5.201 C35.764 5.212 32.226 5.226 28.688 5.249 C25.265 5.271 21.841 5.282 18.418 5.287 C17.122 5.291 15.825 5.298 14.529 5.309 C6.178 5.377 -1.658 4.76 -9.852 3.098 C-9.852 2.438 -9.852 1.778 -9.852 1.098 C-6.732 -0.462 -3.422 -0.023 0 0 Z " fill="#2A8EFC" transform="translate(43.8515625,28.90234375)"/>
<path d="M0 0 C6.542 -0.37 6.542 -0.37 8.625 1.312 C9.079 1.869 9.533 2.426 10 3 C10.846 3.495 11.691 3.99 12.562 4.5 C14.838 5.9 15.906 6.614 17 9 C17 9.99 17 10.98 17 12 C17.99 12.33 18.98 12.66 20 13 C19.67 13.495 19.67 13.495 18 16 C18 15.34 18 14.68 18 14 C17.196 13.691 16.391 13.381 15.562 13.062 C13 12 13 12 12 11 C12 12.32 12 13.64 12 15 C11.01 15 10.02 15 9 15 C8 14 7 13 6 12 C5.196 11.691 4.391 11.381 3.562 11.062 C0.649 9.854 -0.907 8.325 -3 6 C-2.34 6 -1.68 6 -1 6 C-1 5.34 -1 4.68 -1 4 C-2.32 4 -3.64 4 -5 4 C-5 3.34 -5 2.68 -5 2 C-4.01 2.165 -4.01 2.165 1 3 C0.67 2.01 0.34 1.02 0 0 Z " fill="#5465DB" transform="translate(289,13)"/>
<path d="M0 0 C4.448 0.094 8.895 0.2 13.342 0.317 C14.853 0.356 16.364 0.39 17.875 0.422 C20.055 0.468 22.235 0.526 24.414 0.586 C25.083 0.597 25.752 0.609 26.441 0.621 C30.655 0.752 33.99 1.599 38 3 C39.928 3.255 41.867 3.441 43.809 3.562 C44.347 3.6 44.347 3.6 47.072 3.789 C48.183 3.859 49.293 3.928 50.438 4 C62.798 4.777 62.798 4.777 66.508 6.023 C71.623 7.712 77.104 7.473 82.438 7.625 C82.994 7.644 82.994 7.644 85.811 7.742 C88.54 7.836 91.27 7.922 94 8 C94 8.33 94 8.66 94 9 C90.246 9.025 86.493 9.043 82.739 9.055 C81.464 9.06 80.188 9.067 78.913 9.075 C77.073 9.088 75.234 9.093 73.395 9.098 C72.842 9.1 72.842 9.1 70.046 9.114 C67.229 9.009 64.748 8.583 62 8 C60.39 7.883 58.777 7.802 57.164 7.754 C56.264 7.721 55.365 7.688 54.438 7.654 C52.57 7.593 50.703 7.536 48.836 7.482 C44.85 7.332 41.123 7.186 37.297 6 C33.66 4.897 30.394 4.602 26.625 4.438 C20.124 4.124 20.124 4.124 19 3 C17.589 2.774 16.168 2.606 14.746 2.465 C13.892 2.378 13.038 2.291 12.158 2.201 C11.26 2.114 10.363 2.027 9.438 1.938 C8.536 1.847 7.634 1.756 6.705 1.662 C4.47 1.437 2.235 1.217 0 1 C0 0.67 0 0.34 0 0 Z " fill="#277AF8" transform="translate(36,33)"/>
<path d="M0 0 C0.66 1.32 1.32 2.64 2 4 C-2.29 4.66 -6.58 5.32 -11 6 C-11 6.33 -11 6.66 -11 7 C-11.615 7.037 -12.23 7.075 -12.863 7.113 C-13.672 7.179 -14.48 7.245 -15.312 7.312 C-16.113 7.371 -16.914 7.429 -17.738 7.488 C-20.406 8.092 -21.307 8.894 -23 11 C-24.188 13.187 -24.188 13.187 -25 15 C-26.98 15 -28.96 15 -31 15 C-31 13.02 -31 11.04 -31 9 C-30.381 8.773 -29.763 8.546 -29.125 8.312 C-26.38 6.617 -26.065 4.971 -25 2 C-24.506 1.975 -24.012 1.95 -23.503 1.924 C-21.252 1.808 -19.001 1.685 -16.75 1.562 C-15.973 1.523 -15.195 1.484 -14.395 1.443 C-13.64 1.401 -12.886 1.36 -12.109 1.316 C-11.418 1.28 -10.727 1.243 -10.015 1.205 C-6.55 0.852 -3.529 -0.126 0 0 Z " fill="#5070F2" transform="translate(74,9)"/>
<path d="M0 0 C2.387 0.477 4.056 0.553 6.438 0.438 C9.812 0.562 9.812 0.562 11.625 1.938 C12.017 2.474 12.409 3.01 12.812 3.562 C13.472 4.222 14.133 4.883 14.812 5.562 C14.359 5.831 13.905 6.099 13.438 6.375 C11.729 7.623 10.929 8.791 9.812 10.562 C8.333 10.422 6.854 10.275 5.375 10.125 C4.551 10.044 3.728 9.963 2.879 9.879 C0.812 9.562 0.812 9.562 -0.188 8.562 C-2.997 8.319 -5.805 8.179 -8.621 8.039 C-11.188 7.562 -11.188 7.562 -12.535 6.023 C-12.643 5.782 -12.643 5.782 -13.188 4.562 C-12.527 4.562 -11.867 4.562 -11.188 4.562 C-10.858 3.903 -10.527 3.242 -10.188 2.562 C-9.858 2.892 -9.527 3.222 -9.188 3.562 C-8.858 2.572 -8.527 1.583 -8.188 0.562 C-8.188 1.222 -8.188 1.883 -8.188 2.562 C-6.867 2.562 -5.547 2.562 -4.188 2.562 C-4.188 1.903 -4.188 1.242 -4.188 0.562 C-2.188 -0.438 -2.188 -0.438 0 0 Z " fill="#5772EB" transform="translate(33.1875,39.4375)"/>
<path d="M0 0 C1.479 -0.027 2.958 -0.046 4.438 -0.062 C5.261 -0.074 6.085 -0.086 6.934 -0.098 C9 0 9 0 10 1 C12.193 1.236 14.363 1.421 16.562 1.562 C16.87 1.584 16.87 1.584 18.428 1.693 C19.952 1.8 21.476 1.9 23 2 C23.66 3.65 24.32 5.3 25 7 C24.01 6.835 24.01 6.835 19 6 C19 6.66 19 7.32 19 8 C20.32 8 21.64 8 23 8 C23 8.66 23 9.32 23 10 C21.02 10 19.04 10 17 10 C17 9.34 17 8.68 17 8 C16.34 8 15.68 8 15 8 C15 8.66 15 9.32 15 10 C14.34 10 13.68 10 13 10 C13 8.02 13 6.04 13 4 C12.34 4.33 12.34 4.33 9 6 C9.33 6.495 9.33 6.495 11 9 C9.02 9.33 7.04 9.66 5 10 C5 9.34 5 8.68 5 8 C3.68 7.67 2.36 7.34 1 7 C0.67 4.69 0.34 2.38 0 0 Z " fill="#4F6DE9" transform="translate(265,9)"/>
<path d="M0 0 C0.574 0.001 1.149 0.003 1.74 0.004 C3.574 0.01 5.408 0.022 7.242 0.035 C8.486 0.04 9.729 0.045 10.973 0.049 C14.021 0.06 17.069 0.077 20.117 0.098 C19.457 0.428 18.797 0.758 18.117 1.098 C18.117 1.758 18.117 2.418 18.117 3.098 C11.244 3.842 4.948 4.28 -1.883 3.098 C-1.883 3.758 -1.883 4.418 -1.883 5.098 C-5.183 5.098 -8.483 5.098 -11.883 5.098 C-11.883 5.758 -11.883 6.418 -11.883 7.098 C-14.695 7.41 -14.695 7.41 -17.883 7.098 C-19.582 4.578 -19.582 4.578 -20.883 2.098 C-19.968 2.037 -19.052 1.976 -18.109 1.914 C-16.909 1.83 -15.708 1.745 -14.508 1.66 C-13.905 1.621 -13.301 1.582 -12.68 1.541 C-8.187 1.217 -4.568 -0.022 0 0 Z " fill="#467EE3" transform="translate(223.8828125,45.90234375)"/>
<path d="M0 0 C2.31 0 4.62 0 7 0 C7.165 0.66 7.165 0.66 8 4 C4.7 4.33 1.4 4.66 -2 5 C-2 5.99 -2 6.98 -2 8 C-3.758 8.195 -5.516 8.391 -7.273 8.586 C-9 9 -9 9 -11 11 C-12.91 11.379 -12.91 11.379 -15.062 11.562 C-18.903 11.903 -18.903 11.903 -20 13 C-21.207 13.047 -22.417 13.037 -23.625 13 C-26.396 12.955 -28.957 13.088 -31.688 13.562 C-34.839 13.979 -36.962 13.829 -40 13 C-37.529 11.049 -35.62 10.666 -32.508 10.402 C-31.638 10.323 -30.768 10.244 -29.871 10.162 C-29.418 10.125 -29.418 10.125 -27.125 9.938 C-16.175 8.987 -16.175 8.987 -12 8 C-12 7.34 -12 6.68 -12 6 C-8.04 5.01 -4.08 4.02 0 3 C0 2.01 0 1.02 0 0 Z " fill="#3F6BE6" transform="translate(295,29)"/>
<path d="M0 0 C1.812 -0.027 3.625 -0.046 5.438 -0.062 C6.447 -0.074 7.456 -0.086 8.496 -0.098 C11 0 11 0 12 1 C14.82 1.238 17.631 1.394 20.457 1.518 C24.22 1.73 27.393 2.412 31.014 3.534 C35.239 4.525 39.616 4.483 43.938 4.625 C44.908 4.664 45.878 4.702 46.877 4.742 C49.251 4.836 51.625 4.921 54 5 C54 5.33 54 5.66 54 6 C49.461 6.167 44.922 6.328 40.383 6.482 C38.838 6.536 37.292 6.591 35.747 6.648 C33.531 6.73 31.314 6.805 29.098 6.879 C28.75 6.892 28.75 6.892 26.992 6.961 C25.329 7.013 23.664 7.012 22 7 C21.67 6.67 21.34 6.34 21 6 C19.526 5.792 18.045 5.633 16.562 5.5 C12.219 5.11 12.219 5.11 10 4 C8.004 3.641 6.005 3.305 4 3 C4 2.34 4 1.68 4 1 C2.68 0.67 1.36 0.34 0 0 Z " fill="#3B75F5" transform="translate(44,35)"/>
<path d="M0 0 C6.72 -0.023 13.441 -0.041 20.161 -0.052 C23.283 -0.057 26.404 -0.064 29.526 -0.075 C32.548 -0.086 35.569 -0.092 38.591 -0.095 C40.285 -0.098 41.979 -0.105 43.673 -0.113 C50.504 -0.114 57.21 0.254 64 1 C64 1.66 64 2.32 64 3 C53.11 3 42.22 3 31 3 C31 2.34 31 1.68 31 1 C20.77 1 10.54 1 0 1 C0 0.67 0 0.34 0 0 Z " fill="#47AEFD" transform="translate(210,29)"/>
<path d="M0 0 C2.386 0.576 4.667 1.222 7 2 C10.188 1.062 10.188 1.062 13 0 C13.66 0.66 14.32 1.32 15 2 C15.66 1.67 16.32 1.34 17 1 C17 1.99 17 2.98 17 4 C17.516 4.103 18.031 4.206 18.562 4.312 C20.648 4.901 22.412 5.608 24.375 6.5 C27.599 7.928 30.507 8.574 34 9 C34 9.33 34 9.66 34 10 C26.732 10.356 20.092 9.003 13 7.5 C11.832 7.258 10.664 7.018 9.496 6.777 C6.663 6.192 3.831 5.599 1 5 C0.67 3.35 0.34 1.7 0 0 Z " fill="#3B68EA" transform="translate(261,19)"/>
<path d="M0 0 C0.99 0.33 1.98 0.66 3 1 C3 1.66 3 2.32 3 3 C3.351 2.907 3.351 2.907 5.125 2.438 C8.339 1.948 10.836 2.338 14 3 C14 3.66 14 4.32 14 5 C14.66 5 15.32 5 16 5 C16 4.34 16 3.68 16 3 C22.625 1.875 22.625 1.875 26 3 C26 3.66 26 4.32 26 5 C27.32 4.34 28.64 3.68 30 3 C31 4 31 4 31 9 C24.07 8.34 17.14 7.68 10 7 C10 6.67 10 6.34 10 6 C6.7 5.67 3.4 5.34 0 5 C-0.33 3.68 -0.66 2.36 -1 1 C-0.67 0.67 -0.34 0.34 0 0 Z " fill="#3E6FF0" transform="translate(230,14)"/>
<path d="M0 0 C2.549 1.584 3.294 2.659 4.312 5.438 C4.973 5.438 5.633 5.438 6.312 5.438 C7.937 6.812 7.937 6.812 9.312 8.438 C9.312 9.097 9.312 9.758 9.312 10.438 C8.652 10.438 7.992 10.438 7.312 10.438 C7.312 11.097 7.312 11.758 7.312 12.438 C5 12.625 5 12.625 2.312 12.438 C0.813 11.125 0.813 11.125 -0.688 9.438 C-1.533 8.963 -2.379 8.489 -3.25 8 C-5.845 6.336 -6.613 5.27 -7.688 2.438 C-3.438 -0.72 -3.438 -0.72 0 0 Z " fill="#6272ED" transform="translate(9.6875,30.5625)"/>
<path d="M0 0 C-0.33 0.99 -0.66 1.98 -1 3 C-11.56 3 -22.12 3 -33 3 C-33 2.01 -33 1.02 -33 0 C-27.438 -1.138 -27.438 -1.138 -25.285 -0.461 C-21.225 0.358 -17.152 -0.729 -13.107 -1.416 C-8.14 -2.154 -4.742 -1.68 0 0 Z " fill="#5D90D6" transform="translate(133,58)"/>
<path d="M0 0 C2.64 0 5.28 0 8 0 C8 0.66 8 1.32 8 2 C8.743 1.67 9.485 1.34 10.25 1 C15.554 -0.776 23.021 -1.344 28.164 0.977 C28.77 1.314 29.376 1.652 30 2 C31.991 2.383 33.991 2.726 36 3 C36 3.33 36 3.66 36 4 C35.465 3.995 34.93 3.99 34.379 3.984 C31.961 3.963 29.543 3.95 27.125 3.938 C26.283 3.929 25.441 3.921 24.574 3.912 C23.769 3.909 22.963 3.906 22.133 3.902 C21.389 3.897 20.646 3.892 19.879 3.886 C18 4 18 4 16 5 C14.023 5.097 12.042 5.13 10.062 5.125 C9.002 5.128 7.941 5.13 6.848 5.133 C4 5 4 5 1 4 C0.312 1.938 0.312 1.938 0 0 Z " fill="#3F80EF" transform="translate(72,42)"/>
<path d="M0 0 C0.337 -0.007 0.337 -0.007 2.043 -0.043 C3.812 0.188 3.812 0.188 5.812 2.188 C2.693 3.227 0.135 3.467 -3.141 3.688 C-3.719 3.728 -4.298 3.769 -4.893 3.811 C-6.741 3.94 -8.589 4.064 -10.438 4.188 C-24.063 5.108 -24.063 5.108 -27.895 5.746 C-32.48 6.361 -37.005 6.293 -41.625 6.25 C-42.547 6.245 -43.47 6.241 -44.42 6.236 C-46.676 6.225 -48.932 6.208 -51.188 6.188 C-51.188 5.858 -51.188 5.528 -51.188 5.188 C-46.435 4.316 -41.717 3.841 -36.902 3.469 C-35.304 3.34 -33.706 3.211 -32.107 3.082 C-29.61 2.884 -27.113 2.687 -24.616 2.49 C-22.19 2.298 -19.765 2.102 -17.34 1.906 C-16.968 1.878 -16.968 1.878 -15.089 1.733 C-10.025 1.322 -5.068 0.049 0 0 Z " fill="#2E71F2" transform="translate(264.1875,35.8125)"/>
<path d="M0 0 C0.665 0.005 1.33 0.01 2.015 0.016 C2.375 0.017 2.375 0.017 4.193 0.026 C4.57 0.03 4.57 0.03 6.48 0.051 C7.239 0.056 7.997 0.06 8.779 0.065 C10.659 0.077 12.538 0.094 14.418 0.114 C14.088 1.104 13.758 2.094 13.418 3.114 C-7.702 3.114 -28.822 3.114 -50.582 3.114 C-50.582 2.784 -50.582 2.454 -50.582 2.114 C-49.983 2.103 -49.384 2.093 -48.767 2.082 C-42.554 1.974 -36.342 1.86 -30.129 1.741 C-27.808 1.698 -25.487 1.656 -23.166 1.616 C-19.837 1.559 -16.508 1.495 -13.18 1.43 C-12.135 1.413 -11.09 1.397 -10.014 1.379 C-9.053 1.359 -8.092 1.339 -7.102 1.319 C-6.252 1.303 -5.401 1.288 -4.525 1.272 C-2.326 1.093 -2.091 0.15 0 0 Z " fill="#86D9FD" transform="translate(226.582275390625,29.886474609375)"/>
<path d="M0 0 C12.54 0 25.08 0 38 0 C38 0.33 38 0.66 38 1 C36.02 1 34.04 1 32 1 C32 1.66 32 2.32 32 3 C28.407 3.05 24.814 3.086 21.221 3.11 C20.001 3.12 18.781 3.133 17.561 3.151 C15.799 3.175 14.036 3.185 12.273 3.195 C11.745 3.201 11.745 3.201 9.068 3.227 C5.669 2.976 3.171 2.201 0 1 C0 0.67 0 0.34 0 0 Z " fill="#0B78FC" transform="translate(68,34)"/>
<path d="M0 0 C0.307 0.001 0.307 0.001 1.862 0.009 C3.808 0.02 5.753 0.045 7.699 0.07 C9.025 0.08 10.352 0.089 11.678 0.098 C14.914 0.12 18.15 0.154 21.387 0.195 C21.387 0.525 21.387 0.855 21.387 1.195 C6.622 3.629 -7.655 4.622 -22.613 4.195 C-22.613 3.865 -22.613 3.535 -22.613 3.195 C-21.877 3.146 -21.141 3.097 -20.383 3.047 C-19.407 2.972 -18.431 2.897 -17.426 2.82 C-16.463 2.751 -15.5 2.681 -14.508 2.609 C-11.613 2.195 -11.613 2.195 -9.346 1.182 C-6.076 0.001 -3.473 -0.032 0 0 Z " fill="#1066FA" transform="translate(247.61328125,32.8046875)"/>
<path d="M0 0 C5.28 0 10.56 0 16 0 C16.33 1.65 16.66 3.3 17 5 C13.37 5 9.74 5 6 5 C5.67 5.66 5.34 6.32 5 7 C2.69 7 0.38 7 -2 7 C-1.34 6.34 -0.68 5.68 0 5 C0 3.35 0 1.7 0 0 Z " fill="#4C71F4" transform="translate(188,1)"/>
<path d="M0 0 C-0.33 0.66 -0.66 1.32 -1 2 C-2.32 2 -3.64 2 -5 2 C-5 2.66 -5 3.32 -5 4 C-14.24 4 -23.48 4 -33 4 C-33 3.34 -33 2.68 -33 2 C-27.06 2 -21.12 2 -15 2 C-15 1.34 -15 0.68 -15 0 C-9.717 -0.991 -5.293 -0.894 0 0 Z " fill="#3E78E8" transform="translate(251,42)"/>
<path d="M0 0 C0.66 0 1.32 0 2 0 C2.66 1.32 3.32 2.64 4 4 C-11.18 4 -26.36 4 -42 4 C-40 2 -40 2 -37.76 1.789 C-36.842 1.806 -35.923 1.822 -34.977 1.84 C-34.469 1.846 -34.469 1.846 -31.897 1.875 C-30.818 1.895 -29.738 1.916 -28.625 1.938 C-21.067 2.023 -13.681 2.043 -6.172 1.121 C-3.893 0.994 -2.17 1.328 0 2 C0 1.34 0 0.68 0 0 Z " fill="#4989E4" transform="translate(202,49)"/>
<path d="M0 0 C2.31 0 4.62 0 7 0 C7 0.99 7 1.98 7 3 C6.01 3 5.02 3 4 3 C3.67 3.66 3.34 4.32 3 5 C4.32 4.67 5.64 4.34 7 4 C6.34 5.98 5.68 7.96 5 10 C6.32 10 7.64 10 9 10 C9 10.66 9 11.32 9 12 C9.99 12 10.98 12 12 12 C12 12.99 12 13.98 12 15 C11.01 15 10.02 15 9 15 C8 14 7 13 6 12 C5.196 11.691 4.391 11.381 3.562 11.062 C0.649 9.854 -0.907 8.325 -3 6 C-2.34 6 -1.68 6 -1 6 C-1 5.34 -1 4.68 -1 4 C-2.32 4 -3.64 4 -5 4 C-5 3.34 -5 2.68 -5 2 C-4.01 2.165 -4.01 2.165 1 3 C0.67 2.01 0.34 1.02 0 0 Z " fill="#4963DE" transform="translate(289,13)"/>
<path d="M0 0 C-0.32 0.155 -0.32 0.155 -1.938 0.938 C-4 2 -4 2 -5 3 C-6.449 3.214 -7.908 3.37 -9.367 3.5 C-9.81 3.541 -9.81 3.541 -12.051 3.75 C-12.983 3.832 -13.915 3.915 -14.875 4 C-16.706 4.163 -18.537 4.33 -20.367 4.5 C-21.183 4.572 -21.999 4.644 -22.839 4.719 C-25 5 -25 5 -28 6 C-29.7 6.082 -31.403 6.107 -33.105 6.098 C-34.088 6.094 -35.071 6.091 -36.084 6.088 C-37.108 6.08 -38.132 6.071 -39.188 6.062 C-40.223 6.058 -41.259 6.053 -42.326 6.049 C-44.884 6.037 -47.442 6.021 -50 6 C-50 5.67 -50 5.34 -50 5 C-49.169 4.914 -48.337 4.829 -47.481 4.74 C-44.355 4.418 -41.23 4.096 -38.104 3.773 C-36.759 3.634 -35.414 3.496 -34.069 3.357 C-30.862 3.027 -27.655 2.695 -24.449 2.359 C-22.354 2.141 -20.258 1.927 -18.162 1.719 C-17.369 1.638 -16.575 1.556 -15.758 1.473 C-15.095 1.407 -14.433 1.341 -13.75 1.274 C-12 1 -12 1 -8.812 -0.125 C-5.494 -1.158 -3.345 -0.796 0 0 Z " fill="#366EEB" transform="translate(283,36)"/>
<path d="M0 0 C-0.33 0.66 -0.66 1.32 -1 2 C-3.293 2.344 -3.293 2.344 -6.188 2.5 C-12.399 2.943 -12.399 2.943 -15.438 4.062 C-19.85 5.677 -23.434 4.83 -28 4 C-28 3.34 -28 2.68 -28 2 C-23.762 -0.26 -20.086 -0.11 -15.422 0 C-13 0 -13 0 -9.812 -0.562 C-6.272 -1.113 -3.517 -0.633 0 0 Z " fill="#4372E2" transform="translate(274,42)"/>
<path d="M0 0 C0.306 0.001 0.306 0.001 1.858 0.004 C3.793 0.01 5.729 0.022 7.664 0.035 C8.986 0.04 10.307 0.045 11.629 0.049 C14.849 0.06 18.069 0.077 21.289 0.098 C16.617 4.77 6.281 3.148 0.009 3.164 C-4.231 3.159 -8.471 3.136 -12.711 3.098 C-12.711 2.438 -12.711 1.778 -12.711 1.098 C-8.415 0.275 -4.371 -0.02 0 0 Z " fill="#0470FC" transform="translate(216.7109375,33.90234375)"/>
<path d="M0 0 C3.3 0 6.6 0 10 0 C10 0.99 10 1.98 10 3 C10.66 3 11.32 3 12 3 C12 2.01 12 1.02 12 0 C12.66 0 13.32 0 14 0 C14 0.66 14 1.32 14 2 C14.99 1.67 15.98 1.34 17 1 C17 1.66 17 2.32 17 3 C17.99 3.66 18.98 4.32 20 5 C13.4 5 6.8 5 0 5 C0 3.35 0 1.7 0 0 Z " fill="#5E90D6" transform="translate(134,57)"/>
<path d="M0 0 C3.96 0 7.92 0 12 0 C12.66 1.65 13.32 3.3 14 5 C13.01 4.835 13.01 4.835 8 4 C8 4.66 8 5.32 8 6 C9.32 6 10.64 6 12 6 C12 6.66 12 7.32 12 8 C10.02 8 8.04 8 6 8 C6 7.34 6 6.68 6 6 C5.34 6 4.68 6 4 6 C4 6.66 4 7.32 4 8 C3.34 8 2.68 8 2 8 C2.041 7.051 2.082 6.102 2.125 5.125 C2 2 2 2 0 0 Z " fill="#5168E2" transform="translate(276,11)"/>
<path d="M0 0 C8.167 -0.339 15.972 0.688 24 2 C24.296 2.048 24.296 2.048 25.797 2.291 C29.201 2.845 32.601 3.415 36 4 C36 4.33 36 4.66 36 5 C28.816 5.297 21.773 4.808 14.625 4.125 C13.757 4.047 12.889 3.968 11.995 3.887 C7.676 3.451 3.953 2.936 0 1 C0 0.67 0 0.34 0 0 Z " fill="#226AF3" transform="translate(250,25)"/>
<path d="M0 0 C-0.32 0.155 -0.32 0.155 -1.938 0.938 C-4 2 -4 2 -5 3 C-7.255 3.212 -9.49 3.376 -11.75 3.5 C-18.364 3.87 -18.364 3.87 -21.59 4.527 C-24.38 5.075 -26.972 5.097 -29.812 5.062 C-30.3 5.058 -30.3 5.058 -32.77 5.035 C-33.138 5.029 -33.138 5.029 -35 5 C-35 4.67 -35 4.34 -35 4 C-32.36 4 -29.72 4 -27 4 C-27 3.34 -27 2.68 -27 2 C-17.916 0.61 -9.21 -0.309 0 0 Z " fill="#2D6FF9" transform="translate(74,24)"/>
<path d="M0 0 C4.448 0.094 8.895 0.2 13.342 0.317 C14.853 0.356 16.364 0.39 17.875 0.422 C20.055 0.468 22.235 0.526 24.414 0.586 C25.083 0.597 25.752 0.609 26.441 0.621 C30.668 0.752 34.05 1.477 38 3 C38 3.33 38 3.66 38 4 C35.021 4.029 32.042 4.047 29.062 4.062 C28.637 4.067 28.637 4.067 26.486 4.088 C25.677 4.091 24.869 4.094 24.035 4.098 C23.286 4.103 22.537 4.108 21.766 4.114 C20 4 20 4 19 3 C17.589 2.774 16.168 2.606 14.746 2.465 C13.892 2.378 13.038 2.291 12.158 2.201 C11.26 2.114 10.363 2.027 9.438 1.938 C8.536 1.847 7.634 1.756 6.705 1.662 C4.47 1.437 2.235 1.217 0 1 C0 0.67 0 0.34 0 0 Z " fill="#2B6EF7" transform="translate(36,33)"/>
<path d="M0 0 C3.458 -0.087 6.916 -0.14 10.375 -0.188 C11.36 -0.213 12.345 -0.238 13.359 -0.264 C13.83 -0.269 13.83 -0.269 16.211 -0.293 C17.08 -0.309 17.95 -0.324 18.845 -0.341 C19.556 -0.228 20.267 -0.116 21 0 C21.66 0.99 22.32 1.98 23 3 C16.4 3 9.8 3 3 3 C3 2.34 3 1.68 3 1 C2.01 0.67 1.02 0.34 0 0 Z " fill="#5E90D6" transform="translate(181,58)"/>
<path d="M0 0 C7.094 0.585 14.016 1.632 21 3 C21 3.33 21 3.66 21 4 C9.865 4.327 -0.953 3.333 -12 2 C-12 1.67 -12 1.34 -12 1 C-8.04 1 -4.08 1 0 1 C0 0.67 0 0.34 0 0 Z " fill="#2874F6" transform="translate(226,21)"/>
<path d="M0 0 C6.041 -0.552 9.281 0.107 14 4 C14 4.33 14 4.66 14 5 C9.05 5 4.1 5 -1 5 C-0.67 3.35 -0.34 1.7 0 0 Z " fill="#5784CE" transform="translate(164,57)"/>
<path d="M0 0 C0.66 0.33 1.32 0.66 2 1 C2.486 6.346 2.486 6.346 0.375 9.188 C-2.326 11.249 -4.911 12.596 -8 14 C-8.33 13.34 -8.66 12.68 -9 12 C-8.001 9.003 -7.349 7.973 -5 6 C-4.34 6 -3.68 6 -3 6 C-3 5.01 -3 4.02 -3 3 C-2.34 3 -1.68 3 -1 3 C-1 3.66 -1 4.32 -1 5 C-0.34 5 0.32 5 1 5 C0.67 3.35 0.34 1.7 0 0 Z " fill="#6168DB" transform="translate(314,28)"/>
<path d="M0 0 C1.354 -0.055 2.708 -0.093 4.062 -0.125 C4.817 -0.148 5.571 -0.171 6.348 -0.195 C9 0 9 0 12.125 0.969 C16.975 2.449 21.901 2.46 26.938 2.625 C27.423 2.644 27.423 2.644 29.877 2.742 C32.251 2.836 34.625 2.921 37 3 C37 3.33 37 3.66 37 4 C33.531 4.05 30.063 4.086 26.594 4.11 C24.838 4.125 23.082 4.15 21.326 4.176 C20.214 4.182 19.103 4.189 17.957 4.195 C17.446 4.201 17.446 4.201 14.863 4.227 C11.86 3.989 9.731 3.228 7 2 C4.98 1.586 4.98 1.586 3.188 1.375 C2.662 1.313 2.662 1.313 0 1 C0 0.67 0 0.34 0 0 Z " fill="#3278F6" transform="translate(61,37)"/>
<path d="M0 0 C1.65 0.33 3.3 0.66 5 1 C5 2.32 5 3.64 5 5 C5.66 5.33 6.32 5.66 7 6 C6.01 6 5.02 6 4 6 C3.67 6.66 3.34 7.32 3 8 C2.34 8 1.68 8 1 8 C1.33 9.65 1.66 11.3 2 13 C1.01 13.33 0.02 13.66 -1 14 C-2.092 10.069 -1.878 8.535 0 5 C0.125 2.25 0.125 2.25 0 0 Z " fill="#5D59ED" transform="translate(2,20)"/>
<path d="M0 0 C3.3 0.66 6.6 1.32 10 2 C10 2.66 10 3.32 10 4 C11.32 4.33 12.64 4.66 14 5 C12.02 5.165 12.02 5.165 2 6 C2 5.34 2 4.68 2 4 C-0.64 3.34 -3.28 2.68 -6 2 C-2 1 -2 1 0 2 C0 1.34 0 0.68 0 0 Z " fill="#557BD2" transform="translate(256,48)"/>
<path d="M0 0 C-3.957 1.319 -7.864 1.38 -11.994 1.605 C-16.798 1.899 -16.798 1.899 -19 3 C-20.54 3.07 -22.083 3.085 -23.625 3.062 C-24.034 3.058 -24.034 3.058 -26.102 3.035 C-26.415 3.029 -26.415 3.029 -28 3 C-27 1 -27 1 -25.213 0.397 C-21.333 -0.299 -17.431 -0.423 -13.5 -0.625 C-12.645 -0.677 -11.791 -0.728 -10.91 -0.781 C-10.084 -0.825 -9.258 -0.869 -8.406 -0.914 C-8.031 -0.934 -8.031 -0.934 -6.135 -1.038 C-3.939 -0.999 -2.101 -0.616 0 0 Z " fill="#2271FA" transform="translate(97,24)"/>
<path d="M0 0 C2 4 2 4 2 5 C-0.31 5 -2.62 5 -5 5 C-5 4.34 -5 3.68 -5 3 C-7.64 3 -10.28 3 -13 3 C-13 2.34 -13 1.68 -13 1 C-10.855 0.835 -10.855 0.835 0 0 Z " fill="#537DFB" transform="translate(187,2)"/>
<path d="M0 0 C-0.33 0.165 -0.33 0.165 -2 1 C-2 1.66 -2 2.32 -2 3 C-2.66 3 -3.32 3 -4 3 C-4 3.66 -4 4.32 -4 5 C-9.75 6.125 -9.75 6.125 -12 5 C-12 4.01 -12 3.02 -12 2 C-7.788 0.395 -4.579 -0.218 0 0 Z " fill="#5778F9" transform="translate(92,3)"/>
<path d="M0 0 C1.65 0 3.3 0 5 0 C5 0.33 5 0.66 5 1 C13.446 1.185 13.446 1.185 17 0 C17 0.66 17 1.32 17 2 C18.32 2.33 19.64 2.66 21 3 C17.37 3.165 17.37 3.165 -1 4 C-0.67 2.68 -0.34 1.36 0 0 Z " fill="#5984DC" transform="translate(229,52)"/>
<path d="M0 0 C1.806 0.903 3.404 1.767 5 3 C5 3.66 5 4.32 5 5 C3.35 5.33 1.7 5.66 0 6 C0 6.99 0 7.98 0 9 C-1.65 9 -3.3 9 -5 9 C-4.34 8.67 -3.68 8.34 -3 8 C-3 6.02 -3 4.04 -3 2 C-2.01 2 -1.02 2 0 2 C0 1.34 0 0.68 0 0 Z " fill="#4E7CE1" transform="translate(67,46)"/>
<path d="M0 0 C0.825 0.165 0.825 0.165 5 1 C5 1.66 5 2.32 5 3 C6.5 4.125 6.5 4.125 8 5 C7.01 5 6.02 5 5 5 C5 5.66 5 6.32 5 7 C3.35 7 1.7 7 0 7 C0 4.69 0 2.38 0 0 Z " fill="#5488DF" transform="translate(212,51)"/>
<path d="M0 0 C1.65 0 3.3 0 5 0 C5 0.99 5 1.98 5 3 C4.01 3 3.02 3 2 3 C2 3.99 2 4.98 2 6 C1.01 5.835 1.01 5.835 -4 5 C-4 4.01 -4 3.02 -4 2 C-2.68 2 -1.36 2 0 2 C0 1.34 0 0.68 0 0 Z " fill="#4E6FEB" transform="translate(230,3)"/>
<path d="M0 0 C2.64 0 5.28 0 8 0 C8 1.32 8 2.64 8 4 C6.35 4 4.7 4 3 4 C3.33 4.99 3.66 5.98 4 7 C3.34 7 2.68 7 2 7 C1.34 4.69 0.68 2.38 0 0 Z " fill="#5768E5" transform="translate(46,7)"/>
<path d="M0 0 C3.63 0 7.26 0 11 0 C11 0.66 11 1.32 11 2 C13.31 2 15.62 2 18 2 C18 2.33 18 2.66 18 3 C5.33 3.369 5.33 3.369 0 1 C0 0.67 0 0.34 0 0 Z " fill="#146FFB" transform="translate(68,34)"/>
<path d="M0 0 C2.64 0 5.28 0 8 0 C7.67 0.165 7.67 0.165 6 1 C6 1.66 6 2.32 6 3 C8.31 3 10.62 3 13 3 C13 3.33 13 3.66 13 4 C8.71 4 4.42 4 0 4 C0 2.68 0 1.36 0 0 Z " fill="#3474FA" transform="translate(28,29)"/>
<path d="M0 0 C0.99 0 1.98 0 3 0 C3 0.66 3 1.32 3 2 C4.32 2 5.64 2 7 2 C7 2.66 7 3.32 7 4 C8.32 4.33 9.64 4.66 11 5 C9.355 5.194 7.709 5.38 6.062 5.562 C5.604 5.615 5.604 5.615 3.285 5.879 C2.531 5.919 1.777 5.959 1 6 C0 5 0 5 -0.062 2.438 C-0.042 1.633 -0.021 0.829 0 0 Z " fill="#567AD8" transform="translate(273,46)"/>
<path d="M0 0 C0 0.66 0 1.32 0 2 C-6.026 3.071 -11.889 3.099 -18 3 C-18 2.67 -18 2.34 -18 2 C-11.88 0.595 -6.283 -0.233 0 0 Z " fill="#2068F5" transform="translate(282,32)"/>
<path d="M0 0 C11.522 -0.369 11.522 -0.369 17 2 C17 2.33 17 2.66 17 3 C11.569 3.111 6.334 3.111 1 2 C0.67 1.34 0.34 0.68 0 0 Z " fill="#216BF9" transform="translate(57,34)"/>
<path d="M0 0 C2.31 0.66 4.62 1.32 7 2 C7 2.99 7 3.98 7 5 C4.36 5 1.72 5 -1 5 C-0.67 3.35 -0.34 1.7 0 0 Z " fill="#587CE4" transform="translate(35,44)"/>
<path d="M0 0 C4.62 0 9.24 0 14 0 C14 0.66 14 1.32 14 2 C10.37 1.67 6.74 1.34 3 1 C3 1.66 3 2.32 3 3 C1.68 3.33 0.36 3.66 -1 4 C-0.67 2.68 -0.34 1.36 0 0 Z " fill="#5F62F4" transform="translate(66,5)"/>
<path d="M0 0 C1.32 0 2.64 0 4 0 C4 0.66 4 1.32 4 2 C5.32 2.33 6.64 2.66 8 3 C8 3.99 8 4.98 8 6 C6.02 6 4.04 6 2 6 C2 4.68 2 3.36 2 2 C1.34 2 0.68 2 0 2 C0 1.34 0 0.68 0 0 Z " fill="#4E6DEC" transform="translate(216,3)"/>
<path d="M0 0 C9.57 0 19.14 0 29 0 C29 0.33 29 0.66 29 1 C19.43 1 9.86 1 0 1 C0 0.67 0 0.34 0 0 Z " fill="#0000FF" transform="translate(229,57)"/>
<path d="M0 0 C2.31 0 4.62 0 7 0 C7 0.99 7 1.98 7 3 C6.01 3 5.02 3 4 3 C3.67 3.66 3.34 4.32 3 5 C4.32 4.67 5.64 4.34 7 4 C6.01 5.32 5.02 6.64 4 8 C4 7.34 4 6.68 4 6 C3.01 5.67 2.02 5.34 1 5 C0.67 3.35 0.34 1.7 0 0 Z " fill="#4E5ED5" transform="translate(289,13)"/>
<path d="M0 0 C8.91 0 17.82 0 27 0 C27 0.33 27 0.66 27 1 C18.09 1 9.18 1 0 1 C0 0.67 0 0.34 0 0 Z " fill="#001CFF" transform="translate(209,0)"/>
<path d="M0 0 C0.99 0.33 1.98 0.66 3 1 C3 2.32 3 3.64 3 5 C0.03 5 -2.94 5 -6 5 C-2.25 1.125 -2.25 1.125 0 0 Z " fill="#5484D8" transform="translate(96,54)"/>
<path d="M0 0 C1.65 0.33 1.65 0.33 10 2 C9.34 2.33 9.34 2.33 6 4 C5.67 4.33 5.34 4.66 5 5 C3.334 5.041 1.666 5.043 0 5 C0 3.35 0 1.7 0 0 Z " fill="#577AF9" transform="translate(206,1)"/>
<path d="M0 0 C0.892 0.018 1.784 0.036 2.703 0.055 C3.041 0.066 3.041 0.066 4.75 0.125 C4.75 1.115 4.75 2.105 4.75 3.125 C2.44 2.96 2.44 2.96 -9.25 2.125 C-5.382 0.191 -4.1 -0.108 0 0 Z " fill="#5C71F8" transform="translate(199.25,0.875)"/>
<path d="M0 0 C1.461 2.647 2 3.894 2 7 C0.35 6.67 -1.3 6.34 -3 6 C-3.33 5.01 -3.66 4.02 -4 3 C-2.68 2.67 -1.36 2.34 0 2 C0 1.34 0 0.68 0 0 Z " fill="#5B85E5" transform="translate(58,46)"/>
<path d="M0 0 C1.812 0.051 1.812 0.051 4 0.312 C4.722 0.391 5.444 0.47 6.188 0.551 C6.487 0.625 6.487 0.625 8 1 C8.33 1.66 8.66 2.32 9 3 C7.515 3.165 7.515 3.165 0 4 C-0.33 3.01 -0.66 2.02 -1 1 C-0.67 0.67 -0.34 0.34 0 0 Z " fill="#7269EB" transform="translate(10,15)"/>
<path d="M0 0 C3.3 0 6.6 0 10 0 C10 0.66 10 1.32 10 2 C8.709 2.195 7.417 2.381 6.125 2.562 C5.765 2.615 5.765 2.615 3.945 2.879 C2 3 2 3 0 2 C0 1.34 0 0.68 0 0 Z " fill="#5576F7" transform="translate(220,3)"/>
<path d="M0 0 C3.96 0 7.92 0 12 0 C8 3 8 3 5.859 3.074 C5.163 2.947 4.467 2.819 3.75 2.688 C3.397 2.628 3.397 2.628 1.609 2.324 C1.078 2.217 0.547 2.11 0 2 C0 1.34 0 0.68 0 0 Z " fill="#5E6BFA" transform="translate(152,1)"/>
<path d="M0 0 C1.938 0.625 1.938 0.625 4 2 C4.75 5.125 4.75 5.125 5 8 C4.34 8 3.68 8 3 8 C3 7.34 3 6.68 3 6 C2.34 6 1.68 6 1 6 C0.67 4.02 0.34 2.04 0 0 Z " fill="#5364D4" transform="translate(310,25)"/>
<path d="M0 0 C1.65 0 3.3 0 5 0 C4.505 1.32 4.505 1.32 2 8 C1.34 8 0.68 8 0 8 C0 7.01 0 6.02 0 5 C0.66 5 1.32 5 2 5 C2 4.34 2 3.68 2 3 C1.34 3 0.68 3 0 3 C0 2.01 0 1.02 0 0 Z " fill="#5C67EC" transform="translate(17,36)"/>
<path d="M0 0 C2.867 0.573 3.861 0.861 6 3 C5.67 3.66 5.34 4.32 5 5 C3.35 4.67 1.7 4.34 0 4 C0 2.68 0 1.36 0 0 Z " fill="#567DEF" transform="translate(167,1)"/>
<path d="M0 0 C6.93 0 13.86 0 21 0 C21 0.33 21 0.66 21 1 C14.07 1 7.14 1 0 1 C0 0.67 0 0.34 0 0 Z " fill="#00F2FF" transform="translate(78,61)"/>
<path d="M0 0 C1.98 0 3.96 0 6 0 C5.67 0.99 5.34 1.98 5 3 C2.03 3 -0.94 3 -4 3 C-2.68 2.67 -1.36 2.34 0 2 C0 1.34 0 0.68 0 0 Z " fill="#306DF4" transform="translate(286,30)"/>
<path d="M0 0 C0.66 0.66 1.32 1.32 2 2 C2.99 1.67 3.98 1.34 5 1 C5 2.32 5 3.64 5 5 C2.625 5.188 2.625 5.188 0 5 C-1.312 3.5 -1.312 3.5 -2 2 C-1.34 2 -0.68 2 0 2 C0 1.34 0 0.68 0 0 Z " fill="#617CEA" transform="translate(22,42)"/>
<path d="M0 0 C0.825 0.165 0.825 0.165 5 1 C5.33 1.99 5.66 2.98 6 4 C4.02 4 2.04 4 0 4 C0 2.68 0 1.36 0 0 Z " fill="#5A76DF" transform="translate(27,43)"/>
<path d="M0 0 C2.33 0.388 3.657 0.641 5.312 2.375 C6 4 6 4 5 7 C2.233 5.617 1.466 3.665 0 1 C0 0.67 0 0.34 0 0 Z " fill="#5C6DE0" transform="translate(305,21)"/>
<path d="M0 0 C2.64 0 5.28 0 8 0 C5 2 5 2 2 2 C2.33 3.32 2.66 4.64 3 6 C2.01 5.67 1.02 5.34 0 5 C0 3.35 0 1.7 0 0 Z " fill="#5262E4" transform="translate(265,9)"/>
<path d="M0 0 C0.33 1.65 0.66 3.3 1 5 C0.01 4.835 0.01 4.835 -5 4 C-5 3.01 -5 2.02 -5 1 C-3 0 -3 0 0 0 Z " fill="#4B75EE" transform="translate(167,1)"/>
<path d="M0 0 C6.27 0 12.54 0 19 0 C19 0.33 19 0.66 19 1 C12.73 1 6.46 1 0 1 C0 0.67 0 0.34 0 0 Z " fill="#0000FF" transform="translate(46,4)"/>
<path d="M0 0 C6.27 0 12.54 0 19 0 C19 0.33 19 0.66 19 1 C12.73 1 6.46 1 0 1 C0 0.67 0 0.34 0 0 Z " fill="#0000FF" transform="translate(66,2)"/>
<path d="M0 0 C0.99 0.99 1.98 1.98 3 3 C2.67 3.99 2.34 4.98 2 6 C2 5.34 2 4.68 2 4 C-0.64 3.34 -3.28 2.68 -6 2 C-2 1 -2 1 0 2 C0 1.34 0 0.68 0 0 Z " fill="#597FDE" transform="translate(256,48)"/>
<path d="M0 0 C0.66 0 1.32 0 2 0 C2.33 0.99 2.66 1.98 3 3 C3.99 3.33 4.98 3.66 6 4 C4.68 4.99 3.36 5.98 2 7 C2 6.34 2 5.68 2 5 C1.34 5 0.68 5 0 5 C0 3.35 0 1.7 0 0 Z " fill="#5F67E5" transform="translate(7,33)"/>
<path d="M0 0 C2.64 0 5.28 0 8 0 C7.34 1.32 6.68 2.64 6 4 C3.532 2.848 1.952 1.952 0 0 Z " fill="#4F5BD9" transform="translate(276,11)"/>
<path d="M0 0 C0.33 0.66 0.66 1.32 1 2 C0.34 2 -0.32 2 -1 2 C-1.33 3.32 -1.66 4.64 -2 6 C-2 5.34 -2 4.68 -2 4 C-3.32 4 -4.64 4 -6 4 C-6 3.34 -6 2.68 -6 2 C-4.02 1.34 -2.04 0.68 0 0 Z " fill="#4B6CE1" transform="translate(273,9)"/>
<path d="M0 0 C5.28 0 10.56 0 16 0 C16 0.33 16 0.66 16 1 C10.72 1 5.44 1 0 1 C0 0.67 0 0.34 0 0 Z " fill="#00FFFF" transform="translate(171,0)"/>
<path d="M0 0 C4.95 0 9.9 0 15 0 C15 0.33 15 0.66 15 1 C10.05 1 5.1 1 0 1 C0 0.67 0 0.34 0 0 Z " fill="#0000FF" transform="translate(259,55)"/>
<path d="M0 0 C4.95 0 9.9 0 15 0 C15 0.33 15 0.66 15 1 C10.05 1 5.1 1 0 1 C0 0.67 0 0.34 0 0 Z " fill="#0000FF" transform="translate(237,2)"/>
<path d="M0 0 C4.29 0 8.58 0 13 0 C13 0.33 13 0.66 13 1 C8.71 1 4.42 1 0 1 C0 0.67 0 0.34 0 0 Z " fill="#0000FF" transform="translate(275,8)"/>
<path d="M0 0 C4.29 0 8.58 0 13 0 C13 0.33 13 0.66 13 1 C8.71 1 4.42 1 0 1 C0 0.67 0 0.34 0 0 Z " fill="#003AFF" transform="translate(86,0)"/>
<path d="M0 0 C3.63 0 7.26 0 11 0 C11 0.33 11 0.66 11 1 C7.37 1 3.74 1 0 1 C0 0.67 0 0.34 0 0 Z " fill="#00E7FF" transform="translate(205,61)"/>
<path d="M0 0 C3.63 0 7.26 0 11 0 C11 0.33 11 0.66 11 1 C7.37 1 3.74 1 0 1 C0 0.67 0 0.34 0 0 Z " fill="#0000E7" transform="translate(217,59)"/>
<path d="M0 0 C3.63 0 7.26 0 11 0 C11 0.33 11 0.66 11 1 C7.37 1 3.74 1 0 1 C0 0.67 0 0.34 0 0 Z " fill="#0000FF" transform="translate(44,53)"/>
<path d="M0 0 C3.63 0 7.26 0 11 0 C11 0.33 11 0.66 11 1 C7.37 1 3.74 1 0 1 C0 0.67 0 0.34 0 0 Z " fill="#0000FF" transform="translate(22,49)"/>
<path d="M0 0 C3.63 0 7.26 0 11 0 C11 0.33 11 0.66 11 1 C7.37 1 3.74 1 0 1 C0 0.67 0 0.34 0 0 Z " fill="#0000FF" transform="translate(18,10)"/>
<path d="M0 0 C2.97 0 5.94 0 9 0 C9 0.33 9 0.66 9 1 C6.03 1 3.06 1 0 1 C0 0.67 0 0.34 0 0 Z " fill="#0000FF" transform="translate(68,59)"/>
<path d="M0 0 C2.97 0 5.94 0 9 0 C9 0.33 9 0.66 9 1 C6.03 1 3.06 1 0 1 C0 0.67 0 0.34 0 0 Z " fill="#0000FF" transform="translate(275,53)"/>
<path d="M0 0 C2.97 0 5.94 0 9 0 C9 0.33 9 0.66 9 1 C6.03 1 3.06 1 0 1 C0 0.67 0 0.34 0 0 Z " fill="#0000FF" transform="translate(34,51)"/>
<path d="M0 0 C2.97 0 5.94 0 9 0 C9 0.33 9 0.66 9 1 C6.03 1 3.06 1 0 1 C0 0.67 0 0.34 0 0 Z " fill="#0000FF" transform="translate(265,6)"/>
<path d="M0 0 C2.31 0 4.62 0 7 0 C7 0.33 7 0.66 7 1 C4.69 1 2.38 1 0 1 C0 0.67 0 0.34 0 0 Z " fill="#0000FF" transform="translate(285,51)"/>
<path d="M0 0 C2.31 0 4.62 0 7 0 C7 0.33 7 0.66 7 1 C4.69 1 2.38 1 0 1 C0 0.67 0 0.34 0 0 Z " fill="#0000FF" transform="translate(10,12)"/>
<path d="M0 0 C2.31 0 4.62 0 7 0 C7 0.33 7 0.66 7 1 C4.69 1 2.38 1 0 1 C0 0.67 0 0.34 0 0 Z " fill="#0000FF" transform="translate(289,10)"/>
<path d="M0 0 C2.31 0 4.62 0 7 0 C7 0.33 7 0.66 7 1 C4.69 1 2.38 1 0 1 C0 0.67 0 0.34 0 0 Z " fill="#0000FF" transform="translate(30,8)"/>
<path d="M0 0 C2.31 0 4.62 0 7 0 C7 0.33 7 0.66 7 1 C4.69 1 2.38 1 0 1 C0 0.67 0 0.34 0 0 Z " fill="#0000FF" transform="translate(38,6)"/>
<path d="M0 0 C2.31 0 4.62 0 7 0 C7 0.33 7 0.66 7 1 C4.69 1 2.38 1 0 1 C0 0.67 0 0.34 0 0 Z " fill="#0000FF" transform="translate(253,4)"/>
<path d="M0 0 C1.65 0 3.3 0 5 0 C5 0.33 5 0.66 5 1 C3.35 1 1.7 1 0 1 C0 0.67 0 0.34 0 0 Z " fill="#0000FF" transform="translate(62,57)"/>
<path d="M0 0 C1.65 0 3.3 0 5 0 C5 0.33 5 0.66 5 1 C3.35 1 1.7 1 0 1 C0 0.67 0 0.34 0 0 Z " fill="#0000FF" transform="translate(56,55)"/>
<path d="M0 0 C1.65 0 3.3 0 5 0 C5 0.33 5 0.66 5 1 C3.35 1 1.7 1 0 1 C0 0.67 0 0.34 0 0 Z " fill="#0000FF" transform="translate(293,49)"/>
<path d="M0 0 C1.65 0 3.3 0 5 0 C5 0.33 5 0.66 5 1 C3.35 1 1.7 1 0 1 C0 0.67 0 0.34 0 0 Z " fill="#0000FF" transform="translate(301,45)"/>
<path d="M0 0 C1.65 0 3.3 0 5 0 C5 0.33 5 0.66 5 1 C3.35 1 1.7 1 0 1 C0 0.67 0 0.34 0 0 Z " fill="#0000FF" transform="translate(12,45)"/>
<path d="M0 0 C0.33 0 0.66 0 1 0 C1 1.65 1 3.3 1 5 C0.67 5 0.34 5 0 5 C0 3.35 0 1.7 0 0 Z " fill="#0000FF" transform="translate(0,22)"/>
<path d="M0 0 C2 1 2 1 2 1 Z " fill="#0000FF" transform="translate(19,47)"/>
<path d="M0 0 C2 1 2 1 2 1 Z " fill="#0000FF" transform="translate(309,41)"/>
<path d="M0 0 C2 1 2 1 2 1 Z " fill="#0000FF" transform="translate(7,41)"/>
<path d="M0 0 C2 1 2 1 2 1 Z " fill="#0000FF" transform="translate(305,18)"/>
<path d="M0 0 C2 1 2 1 2 1 Z " fill="#0000FF" transform="translate(299,14)"/>
<path d="M0 0 C2 1 2 1 2 1 Z " fill="#0000FF" transform="translate(262,4)"/>
<path d="" fill="#0000FF" transform="translate(0,0)"/>
<path d="" fill="#0000FF" transform="translate(0,0)"/>
<path d="" fill="#0000FF" transform="translate(0,0)"/>
<path d="" fill="#000000" transform="translate(0,0)"/>
<path d="" fill="#0000FF" transform="translate(0,0)"/>
<path d="" fill="#0000FF" transform="translate(0,0)"/>
<path d="" fill="#00007F" transform="translate(0,0)"/>
<path d="" fill="#0000FF" transform="translate(0,0)"/>
<path d="" fill="#0000FF" transform="translate(0,0)"/>
<path d="" fill="#00007F" transform="translate(0,0)"/>
<path d="" fill="#00007F" transform="translate(0,0)"/>
<path d="" fill="#0000FF" transform="translate(0,0)"/>
<path d="" fill="#0000FF" transform="translate(0,0)"/>
<path d="" fill="#0000FF" transform="translate(0,0)"/>
<path d="" fill="#00007F" transform="translate(0,0)"/>
<path d="" fill="#0000FF" transform="translate(0,0)"/>
<path d="" fill="#0000FF" transform="translate(0,0)"/>
<path d="" fill="#0000FF" transform="translate(0,0)"/>
</svg>
